<mxfile host="app.diagrams.net" modified="2024-05-23T06:50:14.056Z" agent="Mozilla/5.0 (X11; Linux x86_64) AppleWebKit/537.36 (KHTML, like Gecko) Chrome/124.0.0.0 Safari/537.36" etag="8Z7jv143gp_IK4NAjpTc" version="24.4.6" type="github" pages="2">
  <diagram name="第 1 页" id="Hbdzxe2Pz33-Iku8xBs4">
    <mxGraphModel dx="1434" dy="700" grid="1" gridSize="10" guides="1" tooltips="1" connect="1" arrows="1" fold="1" page="1" pageScale="1" pageWidth="827" pageHeight="1169" math="0" shadow="0">
      <root>
        <mxCell id="0" />
        <mxCell id="1" parent="0" />
        <mxCell id="0P405ycxDc1SztrLUxh2-1" value="&lt;font style=&quot;font-size: 12px;&quot;&gt;同创（丽水）工厂业务流程图&lt;/font&gt;" style="swimlane;html=1;childLayout=stackLayout;startSize=20;rounded=0;shadow=0;labelBackgroundColor=none;strokeWidth=1;fontFamily=Verdana;fontSize=8;align=center;" vertex="1" parent="1">
          <mxGeometry x="28" y="23" width="1110" height="1407" as="geometry" />
        </mxCell>
        <mxCell id="0P405ycxDc1SztrLUxh2-2" value="仓库" style="swimlane;html=1;startSize=20;" vertex="1" parent="0P405ycxDc1SztrLUxh2-1">
          <mxGeometry y="20" width="160" height="1387" as="geometry" />
        </mxCell>
        <mxCell id="0P405ycxDc1SztrLUxh2-3" value="&lt;font style=&quot;font-size: 8px;&quot;&gt;自制废料&lt;/font&gt;" style="ellipse;whiteSpace=wrap;html=1;aspect=fixed;" vertex="1" parent="0P405ycxDc1SztrLUxh2-2">
          <mxGeometry x="60" y="31" width="42" height="42" as="geometry" />
        </mxCell>
        <mxCell id="0P405ycxDc1SztrLUxh2-4" value="&lt;span style=&quot;font-size: 8px;&quot;&gt;氢化钽粉&lt;/span&gt;" style="ellipse;whiteSpace=wrap;html=1;aspect=fixed;fillColor=#d5e8d4;strokeColor=#82b366;" vertex="1" parent="0P405ycxDc1SztrLUxh2-2">
          <mxGeometry x="60" y="180" width="42" height="42" as="geometry" />
        </mxCell>
        <mxCell id="0P405ycxDc1SztrLUxh2-5" value="&lt;span style=&quot;font-size: 8px;&quot;&gt;W粉&lt;/span&gt;" style="ellipse;whiteSpace=wrap;html=1;aspect=fixed;" vertex="1" parent="0P405ycxDc1SztrLUxh2-2">
          <mxGeometry x="60" y="240" width="42" height="42" as="geometry" />
        </mxCell>
        <mxCell id="0P405ycxDc1SztrLUxh2-6" value="&lt;span style=&quot;font-size: 8px;&quot;&gt;外购钽粉&lt;/span&gt;" style="ellipse;whiteSpace=wrap;html=1;aspect=fixed;" vertex="1" parent="0P405ycxDc1SztrLUxh2-2">
          <mxGeometry x="60" y="310" width="42" height="42" as="geometry" />
        </mxCell>
        <mxCell id="0P405ycxDc1SztrLUxh2-7" value="&lt;span style=&quot;font-size: 8px;&quot;&gt;烧结棒&lt;/span&gt;" style="ellipse;whiteSpace=wrap;html=1;aspect=fixed;fillColor=#d5e8d4;strokeColor=#82b366;" vertex="1" parent="0P405ycxDc1SztrLUxh2-2">
          <mxGeometry x="60" y="370" width="43" height="43" as="geometry" />
        </mxCell>
        <mxCell id="0P405ycxDc1SztrLUxh2-8" value="&lt;span style=&quot;font-size: 8px;&quot;&gt;钽丝&lt;/span&gt;" style="ellipse;whiteSpace=wrap;html=1;aspect=fixed;" vertex="1" parent="0P405ycxDc1SztrLUxh2-2">
          <mxGeometry x="60" y="420" width="43" height="43" as="geometry" />
        </mxCell>
        <mxCell id="0P405ycxDc1SztrLUxh2-9" value="&lt;span style=&quot;font-size: 8px;&quot;&gt;钽靶锭&lt;/span&gt;" style="ellipse;whiteSpace=wrap;html=1;aspect=fixed;fillColor=#d5e8d4;strokeColor=#82b366;" vertex="1" parent="0P405ycxDc1SztrLUxh2-2">
          <mxGeometry x="58.5" y="497" width="43" height="43" as="geometry" />
        </mxCell>
        <mxCell id="0P405ycxDc1SztrLUxh2-10" value="&lt;span style=&quot;font-size: 8px;&quot;&gt;钽条锭&lt;/span&gt;" style="ellipse;whiteSpace=wrap;html=1;aspect=fixed;fillColor=#d5e8d4;strokeColor=#82b366;" vertex="1" parent="0P405ycxDc1SztrLUxh2-2">
          <mxGeometry x="58.5" y="557" width="43" height="43" as="geometry" />
        </mxCell>
        <mxCell id="0P405ycxDc1SztrLUxh2-11" value="&lt;span style=&quot;font-size: 8px;&quot;&gt;成品钽靶&lt;/span&gt;" style="ellipse;whiteSpace=wrap;html=1;aspect=fixed;fillColor=#008a00;strokeColor=#005700;fontColor=#ffffff;" vertex="1" parent="0P405ycxDc1SztrLUxh2-2">
          <mxGeometry x="58.5" y="1287" width="43" height="43" as="geometry" />
        </mxCell>
        <mxCell id="0P405ycxDc1SztrLUxh2-12" value="&lt;span style=&quot;font-size: 8px;&quot;&gt;成品钽条&lt;/span&gt;" style="ellipse;whiteSpace=wrap;html=1;aspect=fixed;fillColor=#008a00;strokeColor=#005700;fontColor=#ffffff;" vertex="1" parent="0P405ycxDc1SztrLUxh2-2">
          <mxGeometry x="58.5" y="1338" width="43" height="43" as="geometry" />
        </mxCell>
        <mxCell id="0P405ycxDc1SztrLUxh2-13" value="&lt;span style=&quot;font-size: 8px;&quot;&gt;成品钽knob&lt;/span&gt;" style="ellipse;whiteSpace=wrap;html=1;aspect=fixed;fillColor=#008a00;strokeColor=#005700;fontColor=#ffffff;" vertex="1" parent="0P405ycxDc1SztrLUxh2-2">
          <mxGeometry x="58.5" y="733" width="43" height="43" as="geometry" />
        </mxCell>
        <mxCell id="0P405ycxDc1SztrLUxh2-14" style="edgeStyle=orthogonalEdgeStyle;rounded=1;html=1;labelBackgroundColor=none;startArrow=none;startFill=0;startSize=5;endArrow=classicThin;endFill=1;endSize=5;jettySize=auto;orthogonalLoop=1;strokeWidth=1;fontFamily=Verdana;fontSize=8;exitX=1;exitY=0.5;exitDx=0;exitDy=0;" edge="1" parent="0P405ycxDc1SztrLUxh2-1" source="0P405ycxDc1SztrLUxh2-3" target="0P405ycxDc1SztrLUxh2-17">
          <mxGeometry relative="1" as="geometry">
            <mxPoint x="110" y="72.99999999999989" as="sourcePoint" />
          </mxGeometry>
        </mxCell>
        <mxCell id="0P405ycxDc1SztrLUxh2-15" value="氢化" style="swimlane;html=1;startSize=20;" vertex="1" parent="0P405ycxDc1SztrLUxh2-1">
          <mxGeometry x="160" y="20" width="160" height="1387" as="geometry" />
        </mxCell>
        <mxCell id="0P405ycxDc1SztrLUxh2-16" style="edgeStyle=orthogonalEdgeStyle;rounded=0;orthogonalLoop=1;jettySize=auto;html=1;exitX=0.5;exitY=1;exitDx=0;exitDy=0;entryX=0.5;entryY=0;entryDx=0;entryDy=0;fontFamily=Verdana;fontSize=8;fontColor=default;fillColor=#dae8fc;strokeColor=#6c8ebf;" edge="1" parent="0P405ycxDc1SztrLUxh2-15" source="0P405ycxDc1SztrLUxh2-17" target="0P405ycxDc1SztrLUxh2-27">
          <mxGeometry relative="1" as="geometry" />
        </mxCell>
        <mxCell id="0P405ycxDc1SztrLUxh2-17" value="剪切/酸洗/清洗" style="rounded=1;whiteSpace=wrap;html=1;shadow=0;labelBackgroundColor=none;strokeWidth=1;fontFamily=Verdana;fontSize=8;align=center;fillColor=#dae8fc;strokeColor=#6c8ebf;" vertex="1" parent="0P405ycxDc1SztrLUxh2-15">
          <mxGeometry x="46" y="39.5" width="70" height="25" as="geometry" />
        </mxCell>
        <mxCell id="0P405ycxDc1SztrLUxh2-18" value="" style="edgeStyle=orthogonalEdgeStyle;rounded=0;orthogonalLoop=1;jettySize=auto;html=1;fillColor=#dae8fc;strokeColor=#6c8ebf;" edge="1" parent="0P405ycxDc1SztrLUxh2-15" source="0P405ycxDc1SztrLUxh2-19" target="0P405ycxDc1SztrLUxh2-21">
          <mxGeometry relative="1" as="geometry" />
        </mxCell>
        <mxCell id="0P405ycxDc1SztrLUxh2-19" value="氢化" style="rounded=1;whiteSpace=wrap;html=1;shadow=0;labelBackgroundColor=none;strokeWidth=1;fontFamily=Verdana;fontSize=8;align=center;fillColor=#dae8fc;strokeColor=#6c8ebf;" vertex="1" parent="0P405ycxDc1SztrLUxh2-15">
          <mxGeometry x="46" y="194" width="70" height="25" as="geometry" />
        </mxCell>
        <mxCell id="0P405ycxDc1SztrLUxh2-20" value="" style="edgeStyle=orthogonalEdgeStyle;rounded=0;orthogonalLoop=1;jettySize=auto;html=1;fillColor=#dae8fc;strokeColor=#6c8ebf;" edge="1" parent="0P405ycxDc1SztrLUxh2-15" source="0P405ycxDc1SztrLUxh2-21" target="0P405ycxDc1SztrLUxh2-23">
          <mxGeometry relative="1" as="geometry" />
        </mxCell>
        <mxCell id="0P405ycxDc1SztrLUxh2-21" value="制粉" style="rounded=1;whiteSpace=wrap;html=1;shadow=0;labelBackgroundColor=none;strokeWidth=1;fontFamily=Verdana;fontSize=8;align=center;fillColor=#dae8fc;strokeColor=#6c8ebf;" vertex="1" parent="0P405ycxDc1SztrLUxh2-15">
          <mxGeometry x="46" y="234" width="70" height="25" as="geometry" />
        </mxCell>
        <mxCell id="0P405ycxDc1SztrLUxh2-22" value="" style="edgeStyle=orthogonalEdgeStyle;rounded=0;orthogonalLoop=1;jettySize=auto;html=1;fillColor=#dae8fc;strokeColor=#6c8ebf;" edge="1" parent="0P405ycxDc1SztrLUxh2-15" source="0P405ycxDc1SztrLUxh2-23" target="0P405ycxDc1SztrLUxh2-25">
          <mxGeometry relative="1" as="geometry" />
        </mxCell>
        <mxCell id="0P405ycxDc1SztrLUxh2-23" value="混粉" style="rounded=1;whiteSpace=wrap;html=1;shadow=0;labelBackgroundColor=none;strokeWidth=1;fontFamily=Verdana;fontSize=8;align=center;fillColor=#dae8fc;strokeColor=#6c8ebf;" vertex="1" parent="0P405ycxDc1SztrLUxh2-15">
          <mxGeometry x="46" y="274" width="70" height="25" as="geometry" />
        </mxCell>
        <mxCell id="0P405ycxDc1SztrLUxh2-24" style="edgeStyle=orthogonalEdgeStyle;rounded=0;orthogonalLoop=1;jettySize=auto;html=1;exitX=0.5;exitY=1;exitDx=0;exitDy=0;entryX=0.5;entryY=0;entryDx=0;entryDy=0;" edge="1" parent="0P405ycxDc1SztrLUxh2-15" source="0P405ycxDc1SztrLUxh2-25" target="0P405ycxDc1SztrLUxh2-28">
          <mxGeometry relative="1" as="geometry" />
        </mxCell>
        <mxCell id="0P405ycxDc1SztrLUxh2-25" value="脱氢" style="rounded=1;whiteSpace=wrap;html=1;shadow=0;labelBackgroundColor=none;strokeWidth=1;fontFamily=Verdana;fontSize=8;align=center;fillColor=#dae8fc;strokeColor=#6c8ebf;" vertex="1" parent="0P405ycxDc1SztrLUxh2-15">
          <mxGeometry x="46" y="314" width="70" height="25" as="geometry" />
        </mxCell>
        <mxCell id="0P405ycxDc1SztrLUxh2-26" style="edgeStyle=orthogonalEdgeStyle;rounded=0;orthogonalLoop=1;jettySize=auto;html=1;exitX=0.5;exitY=1;exitDx=0;exitDy=0;entryX=0.5;entryY=0;entryDx=0;entryDy=0;" edge="1" parent="0P405ycxDc1SztrLUxh2-15" source="0P405ycxDc1SztrLUxh2-27" target="0P405ycxDc1SztrLUxh2-30">
          <mxGeometry relative="1" as="geometry" />
        </mxCell>
        <mxCell id="0P405ycxDc1SztrLUxh2-27" value="烘干" style="rounded=1;whiteSpace=wrap;html=1;shadow=0;labelBackgroundColor=none;strokeWidth=1;fontFamily=Verdana;fontSize=8;align=center;fillColor=#dae8fc;strokeColor=#6c8ebf;" vertex="1" parent="0P405ycxDc1SztrLUxh2-15">
          <mxGeometry x="46" y="79" width="70" height="25" as="geometry" />
        </mxCell>
        <mxCell id="0P405ycxDc1SztrLUxh2-28" value="&lt;font color=&quot;#ff0000&quot;&gt;真空包装&lt;/font&gt;" style="rounded=1;whiteSpace=wrap;html=1;shadow=0;labelBackgroundColor=none;strokeWidth=1;fontFamily=Verdana;fontSize=8;align=center;fillColor=#dae8fc;strokeColor=#6c8ebf;" vertex="1" parent="0P405ycxDc1SztrLUxh2-15">
          <mxGeometry x="46" y="362" width="70" height="25" as="geometry" />
        </mxCell>
        <mxCell id="0P405ycxDc1SztrLUxh2-29" style="edgeStyle=orthogonalEdgeStyle;rounded=0;orthogonalLoop=1;jettySize=auto;html=1;exitX=0.5;exitY=1;exitDx=0;exitDy=0;entryX=0.5;entryY=0;entryDx=0;entryDy=0;" edge="1" parent="0P405ycxDc1SztrLUxh2-15" source="0P405ycxDc1SztrLUxh2-30" target="0P405ycxDc1SztrLUxh2-32">
          <mxGeometry relative="1" as="geometry" />
        </mxCell>
        <mxCell id="0P405ycxDc1SztrLUxh2-30" value="称重" style="rounded=1;whiteSpace=wrap;html=1;shadow=0;labelBackgroundColor=none;strokeWidth=1;fontFamily=Verdana;fontSize=8;align=center;fillColor=#dae8fc;strokeColor=#6c8ebf;" vertex="1" parent="0P405ycxDc1SztrLUxh2-15">
          <mxGeometry x="46" y="117" width="70" height="25" as="geometry" />
        </mxCell>
        <mxCell id="0P405ycxDc1SztrLUxh2-31" style="edgeStyle=orthogonalEdgeStyle;rounded=0;orthogonalLoop=1;jettySize=auto;html=1;exitX=0.5;exitY=1;exitDx=0;exitDy=0;entryX=0.5;entryY=0;entryDx=0;entryDy=0;" edge="1" parent="0P405ycxDc1SztrLUxh2-15" source="0P405ycxDc1SztrLUxh2-32" target="0P405ycxDc1SztrLUxh2-19">
          <mxGeometry relative="1" as="geometry" />
        </mxCell>
        <mxCell id="0P405ycxDc1SztrLUxh2-32" value="虚拟入库" style="rounded=1;whiteSpace=wrap;html=1;shadow=0;labelBackgroundColor=none;strokeWidth=1;fontFamily=Verdana;fontSize=8;align=center;fillColor=#d5e8d4;strokeColor=#82b366;dashed=1;dashPattern=12 12;" vertex="1" parent="0P405ycxDc1SztrLUxh2-15">
          <mxGeometry x="46" y="157" width="70" height="25" as="geometry" />
        </mxCell>
        <mxCell id="0P405ycxDc1SztrLUxh2-33" value="" style="edgeStyle=orthogonalEdgeStyle;rounded=0;orthogonalLoop=1;jettySize=auto;html=1;" edge="1" parent="0P405ycxDc1SztrLUxh2-1" source="0P405ycxDc1SztrLUxh2-25" target="0P405ycxDc1SztrLUxh2-263">
          <mxGeometry relative="1" as="geometry" />
        </mxCell>
        <mxCell id="0P405ycxDc1SztrLUxh2-34" style="edgeStyle=orthogonalEdgeStyle;orthogonalLoop=1;jettySize=auto;html=1;exitX=1;exitY=0;exitDx=0;exitDy=0;entryX=0;entryY=0.5;entryDx=0;entryDy=0;fontFamily=Verdana;fontSize=8;fontColor=default;curved=1;" edge="1" parent="0P405ycxDc1SztrLUxh2-1" source="0P405ycxDc1SztrLUxh2-4" target="0P405ycxDc1SztrLUxh2-43">
          <mxGeometry relative="1" as="geometry">
            <Array as="points">
              <mxPoint x="98" y="130" />
              <mxPoint x="436" y="130" />
              <mxPoint x="436" y="103" />
            </Array>
            <mxPoint x="97.5" y="247" as="sourcePoint" />
          </mxGeometry>
        </mxCell>
        <mxCell id="0P405ycxDc1SztrLUxh2-35" style="edgeStyle=orthogonalEdgeStyle;rounded=0;orthogonalLoop=1;jettySize=auto;html=1;exitX=1;exitY=0.5;exitDx=0;exitDy=0;entryX=0;entryY=0.5;entryDx=0;entryDy=0;fontFamily=Verdana;fontSize=8;fontColor=default;" edge="1" parent="0P405ycxDc1SztrLUxh2-1" source="0P405ycxDc1SztrLUxh2-43" target="0P405ycxDc1SztrLUxh2-265">
          <mxGeometry relative="1" as="geometry" />
        </mxCell>
        <mxCell id="0P405ycxDc1SztrLUxh2-36" style="edgeStyle=orthogonalEdgeStyle;rounded=0;orthogonalLoop=1;jettySize=auto;html=1;entryX=1;entryY=0.5;entryDx=0;entryDy=0;fontFamily=Verdana;fontSize=8;fontColor=default;" edge="1" parent="0P405ycxDc1SztrLUxh2-1" source="0P405ycxDc1SztrLUxh2-266" target="0P405ycxDc1SztrLUxh2-45">
          <mxGeometry relative="1" as="geometry" />
        </mxCell>
        <mxCell id="0P405ycxDc1SztrLUxh2-37" value="是" style="edgeLabel;html=1;align=center;verticalAlign=middle;resizable=0;points=[];fontSize=8;fontFamily=Verdana;fontColor=default;" vertex="1" connectable="0" parent="0P405ycxDc1SztrLUxh2-36">
          <mxGeometry x="0.8096" y="1" relative="1" as="geometry">
            <mxPoint as="offset" />
          </mxGeometry>
        </mxCell>
        <mxCell id="0P405ycxDc1SztrLUxh2-38" style="edgeStyle=orthogonalEdgeStyle;orthogonalLoop=1;jettySize=auto;html=1;exitX=0;exitY=0;exitDx=0;exitDy=0;entryX=0.75;entryY=1;entryDx=0;entryDy=0;fontFamily=Verdana;fontSize=8;fontColor=default;curved=1;" edge="1" parent="0P405ycxDc1SztrLUxh2-1" source="0P405ycxDc1SztrLUxh2-266" target="0P405ycxDc1SztrLUxh2-43">
          <mxGeometry relative="1" as="geometry" />
        </mxCell>
        <mxCell id="0P405ycxDc1SztrLUxh2-39" value="否" style="edgeLabel;html=1;align=center;verticalAlign=middle;resizable=0;points=[];fontSize=8;fontFamily=Verdana;fontColor=default;" vertex="1" connectable="0" parent="0P405ycxDc1SztrLUxh2-38">
          <mxGeometry x="0.6637" y="-7" relative="1" as="geometry">
            <mxPoint as="offset" />
          </mxGeometry>
        </mxCell>
        <mxCell id="0P405ycxDc1SztrLUxh2-40" style="edgeStyle=orthogonalEdgeStyle;rounded=0;orthogonalLoop=1;jettySize=auto;html=1;exitX=0;exitY=0.5;exitDx=0;exitDy=0;entryX=1;entryY=0.5;entryDx=0;entryDy=0;fontFamily=Verdana;fontSize=8;fontColor=default;" edge="1" parent="0P405ycxDc1SztrLUxh2-1" source="0P405ycxDc1SztrLUxh2-56" target="0P405ycxDc1SztrLUxh2-7">
          <mxGeometry relative="1" as="geometry">
            <mxPoint x="115" y="411.5" as="targetPoint" />
          </mxGeometry>
        </mxCell>
        <mxCell id="0P405ycxDc1SztrLUxh2-41" value="是" style="edgeLabel;html=1;align=center;verticalAlign=middle;resizable=0;points=[];fontSize=8;fontFamily=Verdana;fontColor=default;" vertex="1" connectable="0" parent="0P405ycxDc1SztrLUxh2-40">
          <mxGeometry x="0.2929" y="-1" relative="1" as="geometry">
            <mxPoint as="offset" />
          </mxGeometry>
        </mxCell>
        <mxCell id="0P405ycxDc1SztrLUxh2-42" value="EB熔炼" style="swimlane;html=1;startSize=20;" vertex="1" parent="0P405ycxDc1SztrLUxh2-1">
          <mxGeometry x="320" y="20" width="280" height="1387" as="geometry" />
        </mxCell>
        <mxCell id="0P405ycxDc1SztrLUxh2-43" value="混粉" style="rounded=1;whiteSpace=wrap;html=1;shadow=0;labelBackgroundColor=none;strokeWidth=1;fontFamily=Verdana;fontSize=8;align=center;fillColor=#dae8fc;strokeColor=#6c8ebf;" vertex="1" parent="0P405ycxDc1SztrLUxh2-42">
          <mxGeometry x="151" y="70" width="70" height="25" as="geometry" />
        </mxCell>
        <mxCell id="0P405ycxDc1SztrLUxh2-44" value="" style="edgeStyle=orthogonalEdgeStyle;rounded=0;orthogonalLoop=1;jettySize=auto;html=1;fontFamily=Verdana;fontSize=8;fontColor=default;fillColor=#dae8fc;strokeColor=#6c8ebf;" edge="1" parent="0P405ycxDc1SztrLUxh2-42" source="0P405ycxDc1SztrLUxh2-45" target="0P405ycxDc1SztrLUxh2-47">
          <mxGeometry relative="1" as="geometry" />
        </mxCell>
        <mxCell id="0P405ycxDc1SztrLUxh2-45" value="装包套" style="rounded=1;whiteSpace=wrap;html=1;shadow=0;labelBackgroundColor=none;strokeWidth=1;fontFamily=Verdana;fontSize=8;align=center;fillColor=#dae8fc;strokeColor=#6c8ebf;" vertex="1" parent="0P405ycxDc1SztrLUxh2-42">
          <mxGeometry x="151" y="118.75" width="70" height="25" as="geometry" />
        </mxCell>
        <mxCell id="0P405ycxDc1SztrLUxh2-46" value="" style="edgeStyle=orthogonalEdgeStyle;rounded=0;orthogonalLoop=1;jettySize=auto;html=1;fontFamily=Verdana;fontSize=8;fontColor=default;fillColor=#dae8fc;strokeColor=#6c8ebf;" edge="1" parent="0P405ycxDc1SztrLUxh2-42" source="0P405ycxDc1SztrLUxh2-47" target="0P405ycxDc1SztrLUxh2-49">
          <mxGeometry relative="1" as="geometry" />
        </mxCell>
        <mxCell id="0P405ycxDc1SztrLUxh2-47" value="冷等静压" style="rounded=1;whiteSpace=wrap;html=1;shadow=0;labelBackgroundColor=none;strokeWidth=1;fontFamily=Verdana;fontSize=8;align=center;fillColor=#dae8fc;strokeColor=#6c8ebf;" vertex="1" parent="0P405ycxDc1SztrLUxh2-42">
          <mxGeometry x="151" y="163" width="70" height="25" as="geometry" />
        </mxCell>
        <mxCell id="0P405ycxDc1SztrLUxh2-48" value="" style="edgeStyle=orthogonalEdgeStyle;rounded=0;orthogonalLoop=1;jettySize=auto;html=1;fontFamily=Verdana;fontSize=8;fontColor=default;fillColor=#dae8fc;strokeColor=#6c8ebf;" edge="1" parent="0P405ycxDc1SztrLUxh2-42" source="0P405ycxDc1SztrLUxh2-49" target="0P405ycxDc1SztrLUxh2-51">
          <mxGeometry relative="1" as="geometry" />
        </mxCell>
        <mxCell id="0P405ycxDc1SztrLUxh2-49" value="去包套、&lt;font color=&quot;#ff3333&quot;&gt;称重&lt;/font&gt;" style="rounded=1;whiteSpace=wrap;html=1;shadow=0;labelBackgroundColor=none;strokeWidth=1;fontFamily=Verdana;fontSize=8;align=center;fillColor=#dae8fc;strokeColor=#6c8ebf;" vertex="1" parent="0P405ycxDc1SztrLUxh2-42">
          <mxGeometry x="151" y="210" width="70" height="25" as="geometry" />
        </mxCell>
        <mxCell id="0P405ycxDc1SztrLUxh2-50" style="edgeStyle=orthogonalEdgeStyle;rounded=0;orthogonalLoop=1;jettySize=auto;html=1;exitX=0.5;exitY=1;exitDx=0;exitDy=0;entryX=0.5;entryY=0;entryDx=0;entryDy=0;" edge="1" parent="0P405ycxDc1SztrLUxh2-42" source="0P405ycxDc1SztrLUxh2-51" target="0P405ycxDc1SztrLUxh2-102">
          <mxGeometry relative="1" as="geometry" />
        </mxCell>
        <mxCell id="0P405ycxDc1SztrLUxh2-51" value="烧结" style="rounded=1;whiteSpace=wrap;html=1;shadow=0;labelBackgroundColor=none;strokeWidth=1;fontFamily=Verdana;fontSize=8;align=center;fillColor=#dae8fc;strokeColor=#6c8ebf;" vertex="1" parent="0P405ycxDc1SztrLUxh2-42">
          <mxGeometry x="151" y="260" width="70" height="25" as="geometry" />
        </mxCell>
        <mxCell id="0P405ycxDc1SztrLUxh2-52" value="" style="edgeStyle=orthogonalEdgeStyle;rounded=0;orthogonalLoop=1;jettySize=auto;html=1;fontFamily=Verdana;fontSize=8;fontColor=default;" edge="1" parent="0P405ycxDc1SztrLUxh2-42" source="0P405ycxDc1SztrLUxh2-53" target="0P405ycxDc1SztrLUxh2-56">
          <mxGeometry relative="1" as="geometry" />
        </mxCell>
        <mxCell id="0P405ycxDc1SztrLUxh2-53" value="外观检测" style="rounded=1;whiteSpace=wrap;html=1;shadow=0;labelBackgroundColor=none;strokeWidth=1;fontFamily=Verdana;fontSize=8;align=center;fillColor=#dae8fc;strokeColor=#6c8ebf;" vertex="1" parent="0P405ycxDc1SztrLUxh2-42">
          <mxGeometry x="151" y="327" width="70" height="25" as="geometry" />
        </mxCell>
        <mxCell id="0P405ycxDc1SztrLUxh2-54" style="edgeStyle=orthogonalEdgeStyle;rounded=0;orthogonalLoop=1;jettySize=auto;html=1;exitX=1;exitY=0.5;exitDx=0;exitDy=0;entryX=1;entryY=0.5;entryDx=0;entryDy=0;fontFamily=Verdana;fontSize=8;fontColor=default;" edge="1" parent="0P405ycxDc1SztrLUxh2-42" source="0P405ycxDc1SztrLUxh2-56" target="0P405ycxDc1SztrLUxh2-51">
          <mxGeometry relative="1" as="geometry" />
        </mxCell>
        <mxCell id="0P405ycxDc1SztrLUxh2-55" value="否" style="edgeLabel;html=1;align=center;verticalAlign=middle;resizable=0;points=[];fontSize=8;fontFamily=Verdana;fontColor=default;" vertex="1" connectable="0" parent="0P405ycxDc1SztrLUxh2-54">
          <mxGeometry x="0.4343" y="-1" relative="1" as="geometry">
            <mxPoint as="offset" />
          </mxGeometry>
        </mxCell>
        <mxCell id="0P405ycxDc1SztrLUxh2-56" value="是否合格" style="rhombus;whiteSpace=wrap;html=1;fontSize=8;fontFamily=Verdana;rounded=1;shadow=0;labelBackgroundColor=none;strokeWidth=1;fillColor=#f8cecc;strokeColor=#b85450;" vertex="1" parent="0P405ycxDc1SztrLUxh2-42">
          <mxGeometry x="156" y="370" width="60" height="42.5" as="geometry" />
        </mxCell>
        <mxCell id="0P405ycxDc1SztrLUxh2-57" value="装料捆扎" style="rounded=1;whiteSpace=wrap;html=1;shadow=0;labelBackgroundColor=none;strokeWidth=1;fontFamily=Verdana;fontSize=8;align=center;fillColor=#dae8fc;strokeColor=#6c8ebf;" vertex="1" parent="0P405ycxDc1SztrLUxh2-42">
          <mxGeometry x="150.25" y="429.75" width="70" height="25" as="geometry" />
        </mxCell>
        <mxCell id="0P405ycxDc1SztrLUxh2-58" value="一次熔炼" style="rounded=1;whiteSpace=wrap;html=1;shadow=0;labelBackgroundColor=none;strokeWidth=1;fontFamily=Verdana;fontSize=8;align=center;fillColor=#dae8fc;strokeColor=#6c8ebf;" vertex="1" parent="0P405ycxDc1SztrLUxh2-42">
          <mxGeometry x="149.75" y="475.25" width="70" height="25" as="geometry" />
        </mxCell>
        <mxCell id="0P405ycxDc1SztrLUxh2-59" value="" style="edgeStyle=orthogonalEdgeStyle;rounded=0;orthogonalLoop=1;jettySize=auto;html=1;fontFamily=Verdana;fontSize=8;fontColor=default;fillColor=#dae8fc;strokeColor=#6c8ebf;" edge="1" parent="0P405ycxDc1SztrLUxh2-42" source="0P405ycxDc1SztrLUxh2-57" target="0P405ycxDc1SztrLUxh2-58">
          <mxGeometry relative="1" as="geometry" />
        </mxCell>
        <mxCell id="0P405ycxDc1SztrLUxh2-60" value="切割1" style="rounded=1;whiteSpace=wrap;html=1;shadow=0;labelBackgroundColor=none;strokeWidth=1;fontFamily=Verdana;fontSize=8;align=center;fillColor=#dae8fc;strokeColor=#6c8ebf;" vertex="1" parent="0P405ycxDc1SztrLUxh2-42">
          <mxGeometry x="149.75" y="515.25" width="70" height="25" as="geometry" />
        </mxCell>
        <mxCell id="0P405ycxDc1SztrLUxh2-61" value="" style="edgeStyle=orthogonalEdgeStyle;rounded=0;orthogonalLoop=1;jettySize=auto;html=1;fontFamily=Verdana;fontSize=8;fontColor=default;fillColor=#dae8fc;strokeColor=#6c8ebf;" edge="1" parent="0P405ycxDc1SztrLUxh2-42" source="0P405ycxDc1SztrLUxh2-58" target="0P405ycxDc1SztrLUxh2-60">
          <mxGeometry relative="1" as="geometry" />
        </mxCell>
        <mxCell id="0P405ycxDc1SztrLUxh2-62" value="表面检查" style="rounded=1;whiteSpace=wrap;html=1;shadow=0;labelBackgroundColor=none;strokeWidth=1;fontFamily=Verdana;fontSize=8;align=center;fillColor=#dae8fc;strokeColor=#6c8ebf;" vertex="1" parent="0P405ycxDc1SztrLUxh2-42">
          <mxGeometry x="149.75" y="555.25" width="70" height="25" as="geometry" />
        </mxCell>
        <mxCell id="0P405ycxDc1SztrLUxh2-63" value="" style="edgeStyle=orthogonalEdgeStyle;rounded=0;orthogonalLoop=1;jettySize=auto;html=1;fontFamily=Verdana;fontSize=8;fontColor=default;fillColor=#dae8fc;strokeColor=#6c8ebf;" edge="1" parent="0P405ycxDc1SztrLUxh2-42" source="0P405ycxDc1SztrLUxh2-60" target="0P405ycxDc1SztrLUxh2-62">
          <mxGeometry relative="1" as="geometry" />
        </mxCell>
        <mxCell id="0P405ycxDc1SztrLUxh2-64" value="标识1" style="rounded=1;whiteSpace=wrap;html=1;shadow=0;labelBackgroundColor=none;strokeWidth=1;fontFamily=Verdana;fontSize=8;align=center;fillColor=#dae8fc;strokeColor=#6c8ebf;" vertex="1" parent="0P405ycxDc1SztrLUxh2-42">
          <mxGeometry x="149.75" y="595.25" width="70" height="25" as="geometry" />
        </mxCell>
        <mxCell id="0P405ycxDc1SztrLUxh2-65" value="" style="edgeStyle=orthogonalEdgeStyle;rounded=0;orthogonalLoop=1;jettySize=auto;html=1;fontFamily=Verdana;fontSize=8;fontColor=default;fillColor=#dae8fc;strokeColor=#6c8ebf;" edge="1" parent="0P405ycxDc1SztrLUxh2-42" source="0P405ycxDc1SztrLUxh2-62" target="0P405ycxDc1SztrLUxh2-64">
          <mxGeometry relative="1" as="geometry" />
        </mxCell>
        <mxCell id="0P405ycxDc1SztrLUxh2-66" value="焊接" style="rounded=1;whiteSpace=wrap;html=1;shadow=0;labelBackgroundColor=none;strokeWidth=1;fontFamily=Verdana;fontSize=8;align=center;fillColor=#dae8fc;strokeColor=#6c8ebf;" vertex="1" parent="0P405ycxDc1SztrLUxh2-42">
          <mxGeometry x="149.75" y="635.25" width="70" height="25" as="geometry" />
        </mxCell>
        <mxCell id="0P405ycxDc1SztrLUxh2-67" value="" style="edgeStyle=orthogonalEdgeStyle;rounded=0;orthogonalLoop=1;jettySize=auto;html=1;fontFamily=Verdana;fontSize=8;fontColor=default;fillColor=#dae8fc;strokeColor=#6c8ebf;" edge="1" parent="0P405ycxDc1SztrLUxh2-42" source="0P405ycxDc1SztrLUxh2-64" target="0P405ycxDc1SztrLUxh2-66">
          <mxGeometry relative="1" as="geometry" />
        </mxCell>
        <mxCell id="0P405ycxDc1SztrLUxh2-68" value="二次熔炼" style="rounded=1;whiteSpace=wrap;html=1;shadow=0;labelBackgroundColor=none;strokeWidth=1;fontFamily=Verdana;fontSize=8;align=center;fillColor=#dae8fc;strokeColor=#6c8ebf;" vertex="1" parent="0P405ycxDc1SztrLUxh2-42">
          <mxGeometry x="149.75" y="675.25" width="70" height="25" as="geometry" />
        </mxCell>
        <mxCell id="0P405ycxDc1SztrLUxh2-69" value="" style="edgeStyle=orthogonalEdgeStyle;rounded=0;orthogonalLoop=1;jettySize=auto;html=1;fontFamily=Verdana;fontSize=8;fontColor=default;fillColor=#dae8fc;strokeColor=#6c8ebf;" edge="1" parent="0P405ycxDc1SztrLUxh2-42" source="0P405ycxDc1SztrLUxh2-66" target="0P405ycxDc1SztrLUxh2-68">
          <mxGeometry relative="1" as="geometry" />
        </mxCell>
        <mxCell id="0P405ycxDc1SztrLUxh2-70" style="edgeStyle=orthogonalEdgeStyle;rounded=0;orthogonalLoop=1;jettySize=auto;html=1;exitX=1;exitY=0.5;exitDx=0;exitDy=0;entryX=0.75;entryY=0;entryDx=0;entryDy=0;" edge="1" parent="0P405ycxDc1SztrLUxh2-42" source="0P405ycxDc1SztrLUxh2-72" target="0P405ycxDc1SztrLUxh2-99">
          <mxGeometry relative="1" as="geometry" />
        </mxCell>
        <mxCell id="0P405ycxDc1SztrLUxh2-71" value="&lt;font style=&quot;font-size: 8px;&quot;&gt;钽条&lt;/font&gt;" style="edgeLabel;html=1;align=center;verticalAlign=middle;resizable=0;points=[];" vertex="1" connectable="0" parent="0P405ycxDc1SztrLUxh2-70">
          <mxGeometry x="-0.2952" relative="1" as="geometry">
            <mxPoint as="offset" />
          </mxGeometry>
        </mxCell>
        <mxCell id="0P405ycxDc1SztrLUxh2-72" value="标识2" style="rounded=1;whiteSpace=wrap;html=1;shadow=0;labelBackgroundColor=none;strokeWidth=1;fontFamily=Verdana;fontSize=8;align=center;fillColor=#dae8fc;strokeColor=#6c8ebf;" vertex="1" parent="0P405ycxDc1SztrLUxh2-42">
          <mxGeometry x="149.75" y="715.25" width="70" height="25" as="geometry" />
        </mxCell>
        <mxCell id="0P405ycxDc1SztrLUxh2-73" value="" style="edgeStyle=orthogonalEdgeStyle;rounded=0;orthogonalLoop=1;jettySize=auto;html=1;fontFamily=Verdana;fontSize=8;fontColor=default;fillColor=#dae8fc;strokeColor=#6c8ebf;" edge="1" parent="0P405ycxDc1SztrLUxh2-42" source="0P405ycxDc1SztrLUxh2-68" target="0P405ycxDc1SztrLUxh2-72">
          <mxGeometry relative="1" as="geometry" />
        </mxCell>
        <mxCell id="0P405ycxDc1SztrLUxh2-74" value="锯切" style="rounded=1;whiteSpace=wrap;html=1;shadow=0;labelBackgroundColor=none;strokeWidth=1;fontFamily=Verdana;fontSize=8;align=center;fillColor=#dae8fc;strokeColor=#6c8ebf;" vertex="1" parent="0P405ycxDc1SztrLUxh2-42">
          <mxGeometry x="46" y="808" width="70" height="25" as="geometry" />
        </mxCell>
        <mxCell id="0P405ycxDc1SztrLUxh2-75" value="钽靶" style="edgeStyle=orthogonalEdgeStyle;rounded=0;orthogonalLoop=1;jettySize=auto;html=1;fontFamily=Verdana;fontSize=8;fontColor=default;fillColor=#dae8fc;strokeColor=#6c8ebf;" edge="1" parent="0P405ycxDc1SztrLUxh2-42" source="0P405ycxDc1SztrLUxh2-72" target="0P405ycxDc1SztrLUxh2-74">
          <mxGeometry relative="1" as="geometry" />
        </mxCell>
        <mxCell id="0P405ycxDc1SztrLUxh2-76" value="" style="edgeStyle=orthogonalEdgeStyle;rounded=0;orthogonalLoop=1;jettySize=auto;html=1;fontFamily=Verdana;fontSize=8;fontColor=default;fillColor=#dae8fc;strokeColor=#6c8ebf;" edge="1" parent="0P405ycxDc1SztrLUxh2-42" source="0P405ycxDc1SztrLUxh2-77" target="0P405ycxDc1SztrLUxh2-82">
          <mxGeometry relative="1" as="geometry" />
        </mxCell>
        <mxCell id="0P405ycxDc1SztrLUxh2-77" value="锯断" style="rounded=1;whiteSpace=wrap;html=1;shadow=0;labelBackgroundColor=none;strokeWidth=1;fontFamily=Verdana;fontSize=8;align=center;fillColor=#dae8fc;strokeColor=#6c8ebf;" vertex="1" parent="0P405ycxDc1SztrLUxh2-42">
          <mxGeometry x="150" y="861.75" width="70" height="25" as="geometry" />
        </mxCell>
        <mxCell id="0P405ycxDc1SztrLUxh2-78" value="" style="edgeStyle=orthogonalEdgeStyle;rounded=0;orthogonalLoop=1;jettySize=auto;html=1;fontFamily=Verdana;fontSize=8;fontColor=default;entryX=0.5;entryY=0;entryDx=0;entryDy=0;" edge="1" parent="0P405ycxDc1SztrLUxh2-42" source="0P405ycxDc1SztrLUxh2-82" target="0P405ycxDc1SztrLUxh2-84">
          <mxGeometry relative="1" as="geometry">
            <mxPoint x="149.79999999999995" y="983.75" as="targetPoint" />
          </mxGeometry>
        </mxCell>
        <mxCell id="0P405ycxDc1SztrLUxh2-79" value="A" style="edgeLabel;html=1;align=center;verticalAlign=middle;resizable=0;points=[];fontSize=8;fontFamily=Verdana;fontColor=default;" vertex="1" connectable="0" parent="0P405ycxDc1SztrLUxh2-78">
          <mxGeometry x="-0.1746" relative="1" as="geometry">
            <mxPoint as="offset" />
          </mxGeometry>
        </mxCell>
        <mxCell id="0P405ycxDc1SztrLUxh2-80" style="edgeStyle=orthogonalEdgeStyle;rounded=0;orthogonalLoop=1;jettySize=auto;html=1;exitX=0.5;exitY=1;exitDx=0;exitDy=0;entryX=0.5;entryY=0;entryDx=0;entryDy=0;fontFamily=Verdana;fontSize=8;fontColor=default;" edge="1" parent="0P405ycxDc1SztrLUxh2-42" source="0P405ycxDc1SztrLUxh2-82" target="0P405ycxDc1SztrLUxh2-86">
          <mxGeometry relative="1" as="geometry" />
        </mxCell>
        <mxCell id="0P405ycxDc1SztrLUxh2-81" value="B" style="edgeLabel;html=1;align=center;verticalAlign=middle;resizable=0;points=[];fontSize=8;fontFamily=Verdana;fontColor=default;" vertex="1" connectable="0" parent="0P405ycxDc1SztrLUxh2-80">
          <mxGeometry x="-0.1703" y="2" relative="1" as="geometry">
            <mxPoint as="offset" />
          </mxGeometry>
        </mxCell>
        <mxCell id="0P405ycxDc1SztrLUxh2-82" value="标识3" style="rounded=1;whiteSpace=wrap;html=1;shadow=0;labelBackgroundColor=none;strokeWidth=1;fontFamily=Verdana;fontSize=8;align=center;fillColor=#dae8fc;strokeColor=#6c8ebf;" vertex="1" parent="0P405ycxDc1SztrLUxh2-42">
          <mxGeometry x="150" y="903.75" width="70" height="25" as="geometry" />
        </mxCell>
        <mxCell id="0P405ycxDc1SztrLUxh2-83" value="" style="edgeStyle=orthogonalEdgeStyle;rounded=0;orthogonalLoop=1;jettySize=auto;html=1;fontFamily=Verdana;fontSize=8;fontColor=default;fillColor=#dae8fc;strokeColor=#6c8ebf;" edge="1" parent="0P405ycxDc1SztrLUxh2-42" source="0P405ycxDc1SztrLUxh2-84" target="0P405ycxDc1SztrLUxh2-85">
          <mxGeometry relative="1" as="geometry" />
        </mxCell>
        <mxCell id="0P405ycxDc1SztrLUxh2-84" value="车削" style="rounded=1;whiteSpace=wrap;html=1;shadow=0;labelBackgroundColor=none;strokeWidth=1;fontFamily=Verdana;fontSize=8;align=center;fillColor=#dae8fc;strokeColor=#6c8ebf;" vertex="1" parent="0P405ycxDc1SztrLUxh2-42">
          <mxGeometry x="46" y="974" width="70" height="25" as="geometry" />
        </mxCell>
        <mxCell id="0P405ycxDc1SztrLUxh2-85" value="切割3" style="rounded=1;whiteSpace=wrap;html=1;shadow=0;labelBackgroundColor=none;strokeWidth=1;fontFamily=Verdana;fontSize=8;align=center;fillColor=#dae8fc;strokeColor=#6c8ebf;" vertex="1" parent="0P405ycxDc1SztrLUxh2-42">
          <mxGeometry x="46" y="1014" width="70" height="25" as="geometry" />
        </mxCell>
        <mxCell id="0P405ycxDc1SztrLUxh2-86" value="车削" style="rounded=1;whiteSpace=wrap;html=1;shadow=0;labelBackgroundColor=none;strokeWidth=1;fontFamily=Verdana;fontSize=8;align=center;fillColor=#dae8fc;strokeColor=#6c8ebf;" vertex="1" parent="0P405ycxDc1SztrLUxh2-42">
          <mxGeometry x="181" y="974" width="70" height="25" as="geometry" />
        </mxCell>
        <mxCell id="0P405ycxDc1SztrLUxh2-87" value="" style="edgeStyle=orthogonalEdgeStyle;rounded=0;orthogonalLoop=1;jettySize=auto;html=1;fontFamily=Verdana;fontSize=8;fontColor=default;fillColor=#dae8fc;strokeColor=#6c8ebf;" edge="1" parent="0P405ycxDc1SztrLUxh2-42" source="0P405ycxDc1SztrLUxh2-88" target="0P405ycxDc1SztrLUxh2-89">
          <mxGeometry relative="1" as="geometry" />
        </mxCell>
        <mxCell id="0P405ycxDc1SztrLUxh2-88" value="刻字" style="rounded=1;whiteSpace=wrap;html=1;shadow=0;labelBackgroundColor=none;strokeWidth=1;fontFamily=Verdana;fontSize=8;align=center;fillColor=#dae8fc;strokeColor=#6c8ebf;" vertex="1" parent="0P405ycxDc1SztrLUxh2-42">
          <mxGeometry x="115" y="1054" width="70" height="25" as="geometry" />
        </mxCell>
        <mxCell id="0P405ycxDc1SztrLUxh2-89" value="检测" style="rounded=1;whiteSpace=wrap;html=1;shadow=0;labelBackgroundColor=none;strokeWidth=1;fontFamily=Verdana;fontSize=8;align=center;fillColor=#dae8fc;strokeColor=#6c8ebf;" vertex="1" parent="0P405ycxDc1SztrLUxh2-42">
          <mxGeometry x="115" y="1094" width="70" height="25" as="geometry" />
        </mxCell>
        <mxCell id="0P405ycxDc1SztrLUxh2-90" value="" style="edgeStyle=orthogonalEdgeStyle;rounded=0;orthogonalLoop=1;jettySize=auto;html=1;" edge="1" parent="0P405ycxDc1SztrLUxh2-42" source="0P405ycxDc1SztrLUxh2-91" target="0P405ycxDc1SztrLUxh2-93">
          <mxGeometry relative="1" as="geometry" />
        </mxCell>
        <mxCell id="0P405ycxDc1SztrLUxh2-91" value="混母粉" style="rounded=1;whiteSpace=wrap;html=1;shadow=0;labelBackgroundColor=none;strokeWidth=1;fontFamily=Verdana;fontSize=8;align=center;fillColor=#dae8fc;strokeColor=#6c8ebf;dashed=1;" vertex="1" parent="0P405ycxDc1SztrLUxh2-42">
          <mxGeometry x="22" y="41" width="70" height="25" as="geometry" />
        </mxCell>
        <mxCell id="0P405ycxDc1SztrLUxh2-92" value="" style="edgeStyle=orthogonalEdgeStyle;rounded=0;orthogonalLoop=1;jettySize=auto;html=1;" edge="1" parent="0P405ycxDc1SztrLUxh2-42" source="0P405ycxDc1SztrLUxh2-93" target="0P405ycxDc1SztrLUxh2-95">
          <mxGeometry relative="1" as="geometry" />
        </mxCell>
        <mxCell id="0P405ycxDc1SztrLUxh2-93" value="出粉、称重" style="rounded=1;whiteSpace=wrap;html=1;shadow=0;labelBackgroundColor=none;strokeWidth=1;fontFamily=Verdana;fontSize=8;align=center;fillColor=#dae8fc;strokeColor=#6c8ebf;dashed=1;" vertex="1" parent="0P405ycxDc1SztrLUxh2-42">
          <mxGeometry x="22" y="107" width="70" height="25" as="geometry" />
        </mxCell>
        <mxCell id="0P405ycxDc1SztrLUxh2-94" style="edgeStyle=orthogonalEdgeStyle;rounded=0;orthogonalLoop=1;jettySize=auto;html=1;exitX=0.5;exitY=1;exitDx=0;exitDy=0;entryX=0.5;entryY=0;entryDx=0;entryDy=0;" edge="1" parent="0P405ycxDc1SztrLUxh2-42" source="0P405ycxDc1SztrLUxh2-95" target="0P405ycxDc1SztrLUxh2-97">
          <mxGeometry relative="1" as="geometry" />
        </mxCell>
        <mxCell id="0P405ycxDc1SztrLUxh2-95" value="出粉、称重" style="rounded=1;whiteSpace=wrap;html=1;shadow=0;labelBackgroundColor=none;strokeWidth=1;fontFamily=Verdana;fontSize=8;align=center;fillColor=#dae8fc;strokeColor=#6c8ebf;dashed=1;" vertex="1" parent="0P405ycxDc1SztrLUxh2-42">
          <mxGeometry x="21" y="163" width="70" height="25" as="geometry" />
        </mxCell>
        <mxCell id="0P405ycxDc1SztrLUxh2-96" style="edgeStyle=orthogonalEdgeStyle;orthogonalLoop=1;jettySize=auto;html=1;entryX=0;entryY=0.75;entryDx=0;entryDy=0;curved=1;" edge="1" parent="0P405ycxDc1SztrLUxh2-42" source="0P405ycxDc1SztrLUxh2-97" target="0P405ycxDc1SztrLUxh2-43">
          <mxGeometry relative="1" as="geometry">
            <mxPoint x="142" y="107" as="targetPoint" />
          </mxGeometry>
        </mxCell>
        <mxCell id="0P405ycxDc1SztrLUxh2-97" value="&lt;span style=&quot;font-size: 8px;&quot;&gt;母粉&lt;/span&gt;" style="ellipse;whiteSpace=wrap;html=1;aspect=fixed;fillColor=#d5e8d4;strokeColor=#82b366;dashed=1;" vertex="1" parent="0P405ycxDc1SztrLUxh2-42">
          <mxGeometry x="36" y="210" width="42" height="42" as="geometry" />
        </mxCell>
        <mxCell id="0P405ycxDc1SztrLUxh2-98" style="edgeStyle=orthogonalEdgeStyle;rounded=0;orthogonalLoop=1;jettySize=auto;html=1;exitX=0.5;exitY=1;exitDx=0;exitDy=0;entryX=0.5;entryY=0;entryDx=0;entryDy=0;" edge="1" parent="0P405ycxDc1SztrLUxh2-42" source="0P405ycxDc1SztrLUxh2-99" target="0P405ycxDc1SztrLUxh2-100">
          <mxGeometry relative="1" as="geometry" />
        </mxCell>
        <mxCell id="0P405ycxDc1SztrLUxh2-99" value="车削" style="rounded=1;whiteSpace=wrap;html=1;shadow=0;labelBackgroundColor=none;strokeWidth=1;fontFamily=Verdana;fontSize=8;align=center;fillColor=#dae8fc;strokeColor=#6c8ebf;" vertex="1" parent="0P405ycxDc1SztrLUxh2-42">
          <mxGeometry x="192" y="752" width="70" height="25" as="geometry" />
        </mxCell>
        <mxCell id="0P405ycxDc1SztrLUxh2-100" value="切割2" style="rounded=1;whiteSpace=wrap;html=1;shadow=0;labelBackgroundColor=none;strokeWidth=1;fontFamily=Verdana;fontSize=8;align=center;fillColor=#dae8fc;strokeColor=#6c8ebf;" vertex="1" parent="0P405ycxDc1SztrLUxh2-42">
          <mxGeometry x="192" y="827" width="70" height="25" as="geometry" />
        </mxCell>
        <mxCell id="0P405ycxDc1SztrLUxh2-101" style="edgeStyle=orthogonalEdgeStyle;rounded=0;orthogonalLoop=1;jettySize=auto;html=1;exitX=0.5;exitY=1;exitDx=0;exitDy=0;entryX=0.5;entryY=0;entryDx=0;entryDy=0;" edge="1" parent="0P405ycxDc1SztrLUxh2-42" source="0P405ycxDc1SztrLUxh2-102" target="0P405ycxDc1SztrLUxh2-53">
          <mxGeometry relative="1" as="geometry" />
        </mxCell>
        <mxCell id="0P405ycxDc1SztrLUxh2-102" value="&lt;font color=&quot;#ff3333&quot;&gt;出炉称重&lt;/font&gt;" style="rounded=1;whiteSpace=wrap;html=1;shadow=0;labelBackgroundColor=none;strokeWidth=1;fontFamily=Verdana;fontSize=8;align=center;fillColor=#dae8fc;strokeColor=#6c8ebf;" vertex="1" parent="0P405ycxDc1SztrLUxh2-42">
          <mxGeometry x="151" y="293" width="70" height="25" as="geometry" />
        </mxCell>
        <mxCell id="0P405ycxDc1SztrLUxh2-103" value="TMP" style="swimlane;html=1;startSize=20;" vertex="1" parent="0P405ycxDc1SztrLUxh2-1">
          <mxGeometry x="600" y="20" width="390" height="1387" as="geometry" />
        </mxCell>
        <mxCell id="0P405ycxDc1SztrLUxh2-104" style="edgeStyle=orthogonalEdgeStyle;rounded=0;orthogonalLoop=1;jettySize=auto;html=1;exitX=0.5;exitY=1;exitDx=0;exitDy=0;entryX=0.5;entryY=0;entryDx=0;entryDy=0;fontFamily=Verdana;fontSize=8;fontColor=default;fillColor=#dae8fc;strokeColor=#6c8ebf;" edge="1" parent="0P405ycxDc1SztrLUxh2-103" source="0P405ycxDc1SztrLUxh2-105" target="0P405ycxDc1SztrLUxh2-155">
          <mxGeometry relative="1" as="geometry" />
        </mxCell>
        <mxCell id="0P405ycxDc1SztrLUxh2-105" value="锻造1" style="rounded=1;whiteSpace=wrap;html=1;shadow=0;labelBackgroundColor=none;strokeWidth=1;fontFamily=Verdana;fontSize=8;align=center;fillColor=#dae8fc;strokeColor=#6c8ebf;" vertex="1" parent="0P405ycxDc1SztrLUxh2-103">
          <mxGeometry x="30" y="45.25" width="70" height="25" as="geometry" />
        </mxCell>
        <mxCell id="0P405ycxDc1SztrLUxh2-106" value="" style="edgeStyle=orthogonalEdgeStyle;rounded=0;orthogonalLoop=1;jettySize=auto;html=1;fontFamily=Verdana;fontSize=8;fontColor=default;fillColor=#dae8fc;strokeColor=#6c8ebf;" edge="1" parent="0P405ycxDc1SztrLUxh2-103" source="0P405ycxDc1SztrLUxh2-107" target="0P405ycxDc1SztrLUxh2-109">
          <mxGeometry relative="1" as="geometry" />
        </mxCell>
        <mxCell id="0P405ycxDc1SztrLUxh2-107" value="锻造" style="rounded=1;whiteSpace=wrap;html=1;shadow=0;labelBackgroundColor=none;strokeWidth=1;fontFamily=Verdana;fontSize=8;align=center;fillColor=#dae8fc;strokeColor=#6c8ebf;" vertex="1" parent="0P405ycxDc1SztrLUxh2-103">
          <mxGeometry x="160" y="45" width="70" height="25" as="geometry" />
        </mxCell>
        <mxCell id="0P405ycxDc1SztrLUxh2-108" value="" style="edgeStyle=orthogonalEdgeStyle;rounded=0;orthogonalLoop=1;jettySize=auto;html=1;fontFamily=Verdana;fontSize=8;fontColor=default;fillColor=#dae8fc;strokeColor=#6c8ebf;" edge="1" parent="0P405ycxDc1SztrLUxh2-103" source="0P405ycxDc1SztrLUxh2-109" target="0P405ycxDc1SztrLUxh2-111">
          <mxGeometry relative="1" as="geometry" />
        </mxCell>
        <mxCell id="0P405ycxDc1SztrLUxh2-109" value="校平" style="rounded=1;whiteSpace=wrap;html=1;shadow=0;labelBackgroundColor=none;strokeWidth=1;fontFamily=Verdana;fontSize=8;align=center;fillColor=#dae8fc;strokeColor=#6c8ebf;" vertex="1" parent="0P405ycxDc1SztrLUxh2-103">
          <mxGeometry x="160" y="90" width="70" height="25" as="geometry" />
        </mxCell>
        <mxCell id="0P405ycxDc1SztrLUxh2-110" value="" style="edgeStyle=orthogonalEdgeStyle;rounded=0;orthogonalLoop=1;jettySize=auto;html=1;fontFamily=Verdana;fontSize=8;fontColor=default;fillColor=#dae8fc;strokeColor=#6c8ebf;" edge="1" parent="0P405ycxDc1SztrLUxh2-103" source="0P405ycxDc1SztrLUxh2-111" target="0P405ycxDc1SztrLUxh2-113">
          <mxGeometry relative="1" as="geometry" />
        </mxCell>
        <mxCell id="0P405ycxDc1SztrLUxh2-111" value="切断1" style="rounded=1;whiteSpace=wrap;html=1;shadow=0;labelBackgroundColor=none;strokeWidth=1;fontFamily=Verdana;fontSize=8;align=center;fillColor=#dae8fc;strokeColor=#6c8ebf;" vertex="1" parent="0P405ycxDc1SztrLUxh2-103">
          <mxGeometry x="160" y="140" width="70" height="25" as="geometry" />
        </mxCell>
        <mxCell id="0P405ycxDc1SztrLUxh2-112" style="edgeStyle=orthogonalEdgeStyle;rounded=0;orthogonalLoop=1;jettySize=auto;html=1;exitX=0.5;exitY=1;exitDx=0;exitDy=0;entryX=0.5;entryY=0;entryDx=0;entryDy=0;" edge="1" parent="0P405ycxDc1SztrLUxh2-103" source="0P405ycxDc1SztrLUxh2-113" target="0P405ycxDc1SztrLUxh2-203">
          <mxGeometry relative="1" as="geometry" />
        </mxCell>
        <mxCell id="0P405ycxDc1SztrLUxh2-113" value="切断2" style="rounded=1;whiteSpace=wrap;html=1;shadow=0;labelBackgroundColor=none;strokeWidth=1;fontFamily=Verdana;fontSize=8;align=center;fillColor=#dae8fc;strokeColor=#6c8ebf;" vertex="1" parent="0P405ycxDc1SztrLUxh2-103">
          <mxGeometry x="160" y="190" width="70" height="25" as="geometry" />
        </mxCell>
        <mxCell id="0P405ycxDc1SztrLUxh2-114" value="" style="edgeStyle=orthogonalEdgeStyle;rounded=0;orthogonalLoop=1;jettySize=auto;html=1;fontFamily=Verdana;fontSize=8;fontColor=default;fillColor=#dae8fc;strokeColor=#6c8ebf;" edge="1" parent="0P405ycxDc1SztrLUxh2-103" source="0P405ycxDc1SztrLUxh2-115" target="0P405ycxDc1SztrLUxh2-117">
          <mxGeometry relative="1" as="geometry" />
        </mxCell>
        <mxCell id="0P405ycxDc1SztrLUxh2-115" value="车面" style="rounded=1;whiteSpace=wrap;html=1;shadow=0;labelBackgroundColor=none;strokeWidth=1;fontFamily=Verdana;fontSize=8;align=center;fillColor=#dae8fc;strokeColor=#6c8ebf;" vertex="1" parent="0P405ycxDc1SztrLUxh2-103">
          <mxGeometry x="160" y="284.75" width="70" height="25" as="geometry" />
        </mxCell>
        <mxCell id="0P405ycxDc1SztrLUxh2-116" value="" style="edgeStyle=orthogonalEdgeStyle;rounded=0;orthogonalLoop=1;jettySize=auto;html=1;fontFamily=Verdana;fontSize=8;fontColor=default;fillColor=#dae8fc;strokeColor=#6c8ebf;" edge="1" parent="0P405ycxDc1SztrLUxh2-103" source="0P405ycxDc1SztrLUxh2-117" target="0P405ycxDc1SztrLUxh2-119">
          <mxGeometry relative="1" as="geometry" />
        </mxCell>
        <mxCell id="0P405ycxDc1SztrLUxh2-117" value="酸洗1" style="rounded=1;whiteSpace=wrap;html=1;shadow=0;labelBackgroundColor=none;strokeWidth=1;fontFamily=Verdana;fontSize=8;align=center;fillColor=#dae8fc;strokeColor=#6c8ebf;" vertex="1" parent="0P405ycxDc1SztrLUxh2-103">
          <mxGeometry x="160" y="330" width="70" height="25" as="geometry" />
        </mxCell>
        <mxCell id="0P405ycxDc1SztrLUxh2-118" value="" style="edgeStyle=orthogonalEdgeStyle;rounded=0;orthogonalLoop=1;jettySize=auto;html=1;fontFamily=Verdana;fontSize=8;fontColor=default;fillColor=#dae8fc;strokeColor=#6c8ebf;" edge="1" parent="0P405ycxDc1SztrLUxh2-103" source="0P405ycxDc1SztrLUxh2-119" target="0P405ycxDc1SztrLUxh2-121">
          <mxGeometry relative="1" as="geometry" />
        </mxCell>
        <mxCell id="0P405ycxDc1SztrLUxh2-119" value="热处理1" style="rounded=1;whiteSpace=wrap;html=1;shadow=0;labelBackgroundColor=none;strokeWidth=1;fontFamily=Verdana;fontSize=8;align=center;fillColor=#dae8fc;strokeColor=#6c8ebf;" vertex="1" parent="0P405ycxDc1SztrLUxh2-103">
          <mxGeometry x="160" y="380" width="70" height="25" as="geometry" />
        </mxCell>
        <mxCell id="0P405ycxDc1SztrLUxh2-120" value="" style="edgeStyle=orthogonalEdgeStyle;rounded=0;orthogonalLoop=1;jettySize=auto;html=1;fontFamily=Verdana;fontSize=8;fontColor=default;" edge="1" parent="0P405ycxDc1SztrLUxh2-103" source="0P405ycxDc1SztrLUxh2-121" target="0P405ycxDc1SztrLUxh2-123">
          <mxGeometry relative="1" as="geometry" />
        </mxCell>
        <mxCell id="0P405ycxDc1SztrLUxh2-121" value="粗轧1" style="rounded=1;whiteSpace=wrap;html=1;shadow=0;labelBackgroundColor=none;strokeWidth=1;fontFamily=Verdana;fontSize=8;align=center;fillColor=#dae8fc;strokeColor=#6c8ebf;" vertex="1" parent="0P405ycxDc1SztrLUxh2-103">
          <mxGeometry x="160" y="430" width="70" height="25" as="geometry" />
        </mxCell>
        <mxCell id="0P405ycxDc1SztrLUxh2-122" value="" style="edgeStyle=orthogonalEdgeStyle;rounded=0;orthogonalLoop=1;jettySize=auto;html=1;fontFamily=Verdana;fontSize=8;fontColor=default;" edge="1" parent="0P405ycxDc1SztrLUxh2-103" source="0P405ycxDc1SztrLUxh2-123" target="0P405ycxDc1SztrLUxh2-125">
          <mxGeometry relative="1" as="geometry" />
        </mxCell>
        <mxCell id="0P405ycxDc1SztrLUxh2-123" value="切断3" style="rounded=1;whiteSpace=wrap;html=1;shadow=0;labelBackgroundColor=none;strokeWidth=1;fontFamily=Verdana;fontSize=8;align=center;fillColor=#dae8fc;strokeColor=#6c8ebf;" vertex="1" parent="0P405ycxDc1SztrLUxh2-103">
          <mxGeometry x="160" y="480" width="70" height="25" as="geometry" />
        </mxCell>
        <mxCell id="0P405ycxDc1SztrLUxh2-124" value="" style="edgeStyle=orthogonalEdgeStyle;rounded=0;orthogonalLoop=1;jettySize=auto;html=1;fontFamily=Verdana;fontSize=8;fontColor=default;" edge="1" parent="0P405ycxDc1SztrLUxh2-103" source="0P405ycxDc1SztrLUxh2-125" target="0P405ycxDc1SztrLUxh2-127">
          <mxGeometry relative="1" as="geometry" />
        </mxCell>
        <mxCell id="0P405ycxDc1SztrLUxh2-125" value="虚拟入库" style="rounded=1;whiteSpace=wrap;html=1;shadow=0;labelBackgroundColor=none;strokeWidth=1;fontFamily=Verdana;fontSize=8;align=center;dashed=1;dashPattern=8 8;fillColor=#d5e8d4;strokeColor=#82b366;" vertex="1" parent="0P405ycxDc1SztrLUxh2-103">
          <mxGeometry x="160" y="530" width="70" height="25" as="geometry" />
        </mxCell>
        <mxCell id="0P405ycxDc1SztrLUxh2-126" value="" style="edgeStyle=orthogonalEdgeStyle;rounded=0;orthogonalLoop=1;jettySize=auto;html=1;fontFamily=Verdana;fontSize=8;fontColor=default;fillColor=#dae8fc;strokeColor=#6c8ebf;" edge="1" parent="0P405ycxDc1SztrLUxh2-103" source="0P405ycxDc1SztrLUxh2-127" target="0P405ycxDc1SztrLUxh2-129">
          <mxGeometry relative="1" as="geometry" />
        </mxCell>
        <mxCell id="0P405ycxDc1SztrLUxh2-127" value="粗轧2" style="rounded=1;whiteSpace=wrap;html=1;shadow=0;labelBackgroundColor=none;strokeWidth=1;fontFamily=Verdana;fontSize=8;align=center;fillColor=#dae8fc;strokeColor=#6c8ebf;" vertex="1" parent="0P405ycxDc1SztrLUxh2-103">
          <mxGeometry x="160" y="580" width="70" height="25" as="geometry" />
        </mxCell>
        <mxCell id="0P405ycxDc1SztrLUxh2-128" value="" style="edgeStyle=orthogonalEdgeStyle;rounded=0;orthogonalLoop=1;jettySize=auto;html=1;fontFamily=Verdana;fontSize=8;fontColor=default;fillColor=#dae8fc;strokeColor=#6c8ebf;" edge="1" parent="0P405ycxDc1SztrLUxh2-103" source="0P405ycxDc1SztrLUxh2-129" target="0P405ycxDc1SztrLUxh2-131">
          <mxGeometry relative="1" as="geometry" />
        </mxCell>
        <mxCell id="0P405ycxDc1SztrLUxh2-129" value="酸洗2" style="rounded=1;whiteSpace=wrap;html=1;shadow=0;labelBackgroundColor=none;strokeWidth=1;fontFamily=Verdana;fontSize=8;align=center;fillColor=#dae8fc;strokeColor=#6c8ebf;" vertex="1" parent="0P405ycxDc1SztrLUxh2-103">
          <mxGeometry x="160" y="624" width="70" height="25" as="geometry" />
        </mxCell>
        <mxCell id="0P405ycxDc1SztrLUxh2-130" value="" style="edgeStyle=orthogonalEdgeStyle;rounded=0;orthogonalLoop=1;jettySize=auto;html=1;fontFamily=Verdana;fontSize=8;fontColor=default;fillColor=#dae8fc;strokeColor=#6c8ebf;" edge="1" parent="0P405ycxDc1SztrLUxh2-103" source="0P405ycxDc1SztrLUxh2-131" target="0P405ycxDc1SztrLUxh2-133">
          <mxGeometry relative="1" as="geometry" />
        </mxCell>
        <mxCell id="0P405ycxDc1SztrLUxh2-131" value="热处理2" style="rounded=1;whiteSpace=wrap;html=1;shadow=0;labelBackgroundColor=none;strokeWidth=1;fontFamily=Verdana;fontSize=8;align=center;fillColor=#dae8fc;strokeColor=#6c8ebf;" vertex="1" parent="0P405ycxDc1SztrLUxh2-103">
          <mxGeometry x="160" y="673" width="70" height="25" as="geometry" />
        </mxCell>
        <mxCell id="0P405ycxDc1SztrLUxh2-132" value="" style="edgeStyle=orthogonalEdgeStyle;rounded=0;orthogonalLoop=1;jettySize=auto;html=1;fontFamily=Verdana;fontSize=8;fontColor=default;" edge="1" parent="0P405ycxDc1SztrLUxh2-103" source="0P405ycxDc1SztrLUxh2-133" target="0P405ycxDc1SztrLUxh2-135">
          <mxGeometry relative="1" as="geometry" />
        </mxCell>
        <mxCell id="0P405ycxDc1SztrLUxh2-133" value="中轧" style="rounded=1;whiteSpace=wrap;html=1;shadow=0;labelBackgroundColor=none;strokeWidth=1;fontFamily=Verdana;fontSize=8;align=center;fillColor=#dae8fc;strokeColor=#6c8ebf;" vertex="1" parent="0P405ycxDc1SztrLUxh2-103">
          <mxGeometry x="160" y="723" width="70" height="25" as="geometry" />
        </mxCell>
        <mxCell id="0P405ycxDc1SztrLUxh2-134" value="" style="edgeStyle=orthogonalEdgeStyle;rounded=0;orthogonalLoop=1;jettySize=auto;html=1;fontFamily=Verdana;fontSize=8;fontColor=default;" edge="1" parent="0P405ycxDc1SztrLUxh2-103" source="0P405ycxDc1SztrLUxh2-135" target="0P405ycxDc1SztrLUxh2-137">
          <mxGeometry relative="1" as="geometry" />
        </mxCell>
        <mxCell id="0P405ycxDc1SztrLUxh2-135" value="酸洗3" style="rounded=1;whiteSpace=wrap;html=1;shadow=0;labelBackgroundColor=none;strokeWidth=1;fontFamily=Verdana;fontSize=8;align=center;fillColor=#dae8fc;strokeColor=#6c8ebf;" vertex="1" parent="0P405ycxDc1SztrLUxh2-103">
          <mxGeometry x="160" y="780" width="70" height="25" as="geometry" />
        </mxCell>
        <mxCell id="0P405ycxDc1SztrLUxh2-136" value="" style="edgeStyle=orthogonalEdgeStyle;rounded=0;orthogonalLoop=1;jettySize=auto;html=1;fontFamily=Verdana;fontSize=8;fontColor=default;" edge="1" parent="0P405ycxDc1SztrLUxh2-103" source="0P405ycxDc1SztrLUxh2-137" target="0P405ycxDc1SztrLUxh2-139">
          <mxGeometry relative="1" as="geometry" />
        </mxCell>
        <mxCell id="0P405ycxDc1SztrLUxh2-137" value="热处理3" style="rounded=1;whiteSpace=wrap;html=1;shadow=0;labelBackgroundColor=none;strokeWidth=1;fontFamily=Verdana;fontSize=8;align=center;fillColor=#dae8fc;strokeColor=#6c8ebf;" vertex="1" parent="0P405ycxDc1SztrLUxh2-103">
          <mxGeometry x="160" y="840" width="70" height="25" as="geometry" />
        </mxCell>
        <mxCell id="0P405ycxDc1SztrLUxh2-138" value="" style="edgeStyle=orthogonalEdgeStyle;rounded=0;orthogonalLoop=1;jettySize=auto;html=1;fontFamily=Verdana;fontSize=8;fontColor=default;" edge="1" parent="0P405ycxDc1SztrLUxh2-103" source="0P405ycxDc1SztrLUxh2-139" target="0P405ycxDc1SztrLUxh2-141">
          <mxGeometry relative="1" as="geometry" />
        </mxCell>
        <mxCell id="0P405ycxDc1SztrLUxh2-139" value="精轧" style="rounded=1;whiteSpace=wrap;html=1;shadow=0;labelBackgroundColor=none;strokeWidth=1;fontFamily=Verdana;fontSize=8;align=center;fillColor=#dae8fc;strokeColor=#6c8ebf;" vertex="1" parent="0P405ycxDc1SztrLUxh2-103">
          <mxGeometry x="160" y="890" width="70" height="25" as="geometry" />
        </mxCell>
        <mxCell id="0P405ycxDc1SztrLUxh2-140" value="" style="edgeStyle=orthogonalEdgeStyle;rounded=0;orthogonalLoop=1;jettySize=auto;html=1;fontFamily=Verdana;fontSize=8;fontColor=default;fillColor=#dae8fc;strokeColor=#6c8ebf;" edge="1" parent="0P405ycxDc1SztrLUxh2-103" source="0P405ycxDc1SztrLUxh2-141" target="0P405ycxDc1SztrLUxh2-143">
          <mxGeometry relative="1" as="geometry" />
        </mxCell>
        <mxCell id="0P405ycxDc1SztrLUxh2-141" value="剪切1" style="rounded=1;whiteSpace=wrap;html=1;shadow=0;labelBackgroundColor=none;strokeWidth=1;fontFamily=Verdana;fontSize=8;align=center;fillColor=#dae8fc;strokeColor=#6c8ebf;" vertex="1" parent="0P405ycxDc1SztrLUxh2-103">
          <mxGeometry x="160" y="970" width="70" height="25" as="geometry" />
        </mxCell>
        <mxCell id="0P405ycxDc1SztrLUxh2-142" value="" style="edgeStyle=orthogonalEdgeStyle;rounded=0;orthogonalLoop=1;jettySize=auto;html=1;fontFamily=Verdana;fontSize=8;fontColor=default;fillColor=#dae8fc;strokeColor=#6c8ebf;" edge="1" parent="0P405ycxDc1SztrLUxh2-103" source="0P405ycxDc1SztrLUxh2-143" target="0P405ycxDc1SztrLUxh2-145">
          <mxGeometry relative="1" as="geometry" />
        </mxCell>
        <mxCell id="0P405ycxDc1SztrLUxh2-143" value="校平" style="rounded=1;whiteSpace=wrap;html=1;shadow=0;labelBackgroundColor=none;strokeWidth=1;fontFamily=Verdana;fontSize=8;align=center;fillColor=#dae8fc;strokeColor=#6c8ebf;" vertex="1" parent="0P405ycxDc1SztrLUxh2-103">
          <mxGeometry x="160" y="1030" width="70" height="25" as="geometry" />
        </mxCell>
        <mxCell id="0P405ycxDc1SztrLUxh2-144" value="" style="edgeStyle=orthogonalEdgeStyle;rounded=0;orthogonalLoop=1;jettySize=auto;html=1;fontFamily=Verdana;fontSize=8;fontColor=default;fillColor=#dae8fc;strokeColor=#6c8ebf;" edge="1" parent="0P405ycxDc1SztrLUxh2-103" source="0P405ycxDc1SztrLUxh2-145" target="0P405ycxDc1SztrLUxh2-147">
          <mxGeometry relative="1" as="geometry" />
        </mxCell>
        <mxCell id="0P405ycxDc1SztrLUxh2-145" value="剪切2" style="rounded=1;whiteSpace=wrap;html=1;shadow=0;labelBackgroundColor=none;strokeWidth=1;fontFamily=Verdana;fontSize=8;align=center;fillColor=#dae8fc;strokeColor=#6c8ebf;" vertex="1" parent="0P405ycxDc1SztrLUxh2-103">
          <mxGeometry x="160" y="1080" width="70" height="25" as="geometry" />
        </mxCell>
        <mxCell id="0P405ycxDc1SztrLUxh2-146" value="" style="edgeStyle=orthogonalEdgeStyle;rounded=0;orthogonalLoop=1;jettySize=auto;html=1;fontFamily=Verdana;fontSize=8;fontColor=default;fillColor=#dae8fc;strokeColor=#6c8ebf;" edge="1" parent="0P405ycxDc1SztrLUxh2-103" source="0P405ycxDc1SztrLUxh2-147" target="0P405ycxDc1SztrLUxh2-149">
          <mxGeometry relative="1" as="geometry" />
        </mxCell>
        <mxCell id="0P405ycxDc1SztrLUxh2-147" value="线切割" style="rounded=1;whiteSpace=wrap;html=1;shadow=0;labelBackgroundColor=none;strokeWidth=1;fontFamily=Verdana;fontSize=8;align=center;fillColor=#dae8fc;strokeColor=#6c8ebf;" vertex="1" parent="0P405ycxDc1SztrLUxh2-103">
          <mxGeometry x="160" y="1130" width="70" height="25" as="geometry" />
        </mxCell>
        <mxCell id="0P405ycxDc1SztrLUxh2-148" value="" style="edgeStyle=orthogonalEdgeStyle;rounded=0;orthogonalLoop=1;jettySize=auto;html=1;fontFamily=Verdana;fontSize=8;fontColor=default;fillColor=#dae8fc;strokeColor=#6c8ebf;" edge="1" parent="0P405ycxDc1SztrLUxh2-103" source="0P405ycxDc1SztrLUxh2-149" target="0P405ycxDc1SztrLUxh2-151">
          <mxGeometry relative="1" as="geometry" />
        </mxCell>
        <mxCell id="0P405ycxDc1SztrLUxh2-149" value="刻字" style="rounded=1;whiteSpace=wrap;html=1;shadow=0;labelBackgroundColor=none;strokeWidth=1;fontFamily=Verdana;fontSize=8;align=center;fillColor=#dae8fc;strokeColor=#6c8ebf;" vertex="1" parent="0P405ycxDc1SztrLUxh2-103">
          <mxGeometry x="160" y="1180" width="70" height="25" as="geometry" />
        </mxCell>
        <mxCell id="0P405ycxDc1SztrLUxh2-150" value="" style="edgeStyle=orthogonalEdgeStyle;rounded=0;orthogonalLoop=1;jettySize=auto;html=1;fontFamily=Verdana;fontSize=8;fontColor=default;fillColor=#dae8fc;strokeColor=#6c8ebf;" edge="1" parent="0P405ycxDc1SztrLUxh2-103" source="0P405ycxDc1SztrLUxh2-151" target="0P405ycxDc1SztrLUxh2-153">
          <mxGeometry relative="1" as="geometry" />
        </mxCell>
        <mxCell id="0P405ycxDc1SztrLUxh2-151" value="酸洗4" style="rounded=1;whiteSpace=wrap;html=1;shadow=0;labelBackgroundColor=none;strokeWidth=1;fontFamily=Verdana;fontSize=8;align=center;fillColor=#dae8fc;strokeColor=#6c8ebf;" vertex="1" parent="0P405ycxDc1SztrLUxh2-103">
          <mxGeometry x="160" y="1230" width="70" height="25" as="geometry" />
        </mxCell>
        <mxCell id="0P405ycxDc1SztrLUxh2-152" value="" style="edgeStyle=orthogonalEdgeStyle;rounded=0;orthogonalLoop=1;jettySize=auto;html=1;fontFamily=Verdana;fontSize=8;fontColor=default;" edge="1" parent="0P405ycxDc1SztrLUxh2-103" source="0P405ycxDc1SztrLUxh2-153" target="0P405ycxDc1SztrLUxh2-154">
          <mxGeometry relative="1" as="geometry" />
        </mxCell>
        <mxCell id="0P405ycxDc1SztrLUxh2-153" value="热处理4" style="rounded=1;whiteSpace=wrap;html=1;shadow=0;labelBackgroundColor=none;strokeWidth=1;fontFamily=Verdana;fontSize=8;align=center;fillColor=#dae8fc;strokeColor=#6c8ebf;" vertex="1" parent="0P405ycxDc1SztrLUxh2-103">
          <mxGeometry x="160" y="1280" width="70" height="25" as="geometry" />
        </mxCell>
        <mxCell id="0P405ycxDc1SztrLUxh2-154" value="成品检测" style="rounded=1;whiteSpace=wrap;html=1;shadow=0;labelBackgroundColor=none;strokeWidth=1;fontFamily=Verdana;fontSize=8;align=center;fillColor=#ffe6cc;strokeColor=#d79b00;" vertex="1" parent="0P405ycxDc1SztrLUxh2-103">
          <mxGeometry x="160" y="1356" width="70" height="25" as="geometry" />
        </mxCell>
        <mxCell id="0P405ycxDc1SztrLUxh2-155" value="酸洗1" style="rounded=1;whiteSpace=wrap;html=1;shadow=0;labelBackgroundColor=none;strokeWidth=1;fontFamily=Verdana;fontSize=8;align=center;fillColor=#dae8fc;strokeColor=#6c8ebf;" vertex="1" parent="0P405ycxDc1SztrLUxh2-103">
          <mxGeometry x="30" y="90" width="70" height="25" as="geometry" />
        </mxCell>
        <mxCell id="0P405ycxDc1SztrLUxh2-156" style="edgeStyle=orthogonalEdgeStyle;rounded=0;orthogonalLoop=1;jettySize=auto;html=1;exitX=0.5;exitY=1;exitDx=0;exitDy=0;entryX=0.5;entryY=0;entryDx=0;entryDy=0;fontFamily=Verdana;fontSize=8;fontColor=default;fillColor=#dae8fc;strokeColor=#6c8ebf;" edge="1" parent="0P405ycxDc1SztrLUxh2-103" source="0P405ycxDc1SztrLUxh2-157" target="0P405ycxDc1SztrLUxh2-159">
          <mxGeometry relative="1" as="geometry" />
        </mxCell>
        <mxCell id="0P405ycxDc1SztrLUxh2-157" value="热处理1" style="rounded=1;whiteSpace=wrap;html=1;shadow=0;labelBackgroundColor=none;strokeWidth=1;fontFamily=Verdana;fontSize=8;align=center;fillColor=#dae8fc;strokeColor=#6c8ebf;" vertex="1" parent="0P405ycxDc1SztrLUxh2-103">
          <mxGeometry x="30" y="140" width="70" height="25" as="geometry" />
        </mxCell>
        <mxCell id="0P405ycxDc1SztrLUxh2-158" value="" style="edgeStyle=orthogonalEdgeStyle;rounded=0;orthogonalLoop=1;jettySize=auto;html=1;fontFamily=Verdana;fontSize=8;fontColor=default;fillColor=#dae8fc;strokeColor=#6c8ebf;" edge="1" parent="0P405ycxDc1SztrLUxh2-103" source="0P405ycxDc1SztrLUxh2-155" target="0P405ycxDc1SztrLUxh2-157">
          <mxGeometry relative="1" as="geometry" />
        </mxCell>
        <mxCell id="0P405ycxDc1SztrLUxh2-159" value="锻造2" style="rounded=1;whiteSpace=wrap;html=1;shadow=0;labelBackgroundColor=none;strokeWidth=1;fontFamily=Verdana;fontSize=8;align=center;fillColor=#dae8fc;strokeColor=#6c8ebf;" vertex="1" parent="0P405ycxDc1SztrLUxh2-103">
          <mxGeometry x="30" y="190" width="70" height="25" as="geometry" />
        </mxCell>
        <mxCell id="0P405ycxDc1SztrLUxh2-160" value="酸洗2" style="rounded=1;whiteSpace=wrap;html=1;shadow=0;labelBackgroundColor=none;strokeWidth=1;fontFamily=Verdana;fontSize=8;align=center;fillColor=#dae8fc;strokeColor=#6c8ebf;" vertex="1" parent="0P405ycxDc1SztrLUxh2-103">
          <mxGeometry x="30" y="234.75" width="70" height="25" as="geometry" />
        </mxCell>
        <mxCell id="0P405ycxDc1SztrLUxh2-161" style="edgeStyle=orthogonalEdgeStyle;rounded=0;orthogonalLoop=1;jettySize=auto;html=1;exitX=0.5;exitY=1;exitDx=0;exitDy=0;entryX=0.5;entryY=0;entryDx=0;entryDy=0;fontFamily=Verdana;fontSize=8;fontColor=default;fillColor=#dae8fc;strokeColor=#6c8ebf;" edge="1" parent="0P405ycxDc1SztrLUxh2-103" source="0P405ycxDc1SztrLUxh2-159" target="0P405ycxDc1SztrLUxh2-160">
          <mxGeometry relative="1" as="geometry" />
        </mxCell>
        <mxCell id="0P405ycxDc1SztrLUxh2-162" value="" style="edgeStyle=orthogonalEdgeStyle;rounded=0;orthogonalLoop=1;jettySize=auto;html=1;fontFamily=Verdana;fontSize=8;fontColor=default;fillColor=#dae8fc;strokeColor=#6c8ebf;" edge="1" parent="0P405ycxDc1SztrLUxh2-103" source="0P405ycxDc1SztrLUxh2-163" target="0P405ycxDc1SztrLUxh2-166">
          <mxGeometry relative="1" as="geometry" />
        </mxCell>
        <mxCell id="0P405ycxDc1SztrLUxh2-163" value="热处理2" style="rounded=1;whiteSpace=wrap;html=1;shadow=0;labelBackgroundColor=none;strokeWidth=1;fontFamily=Verdana;fontSize=8;align=center;fillColor=#dae8fc;strokeColor=#6c8ebf;" vertex="1" parent="0P405ycxDc1SztrLUxh2-103">
          <mxGeometry x="30" y="284.75" width="70" height="25" as="geometry" />
        </mxCell>
        <mxCell id="0P405ycxDc1SztrLUxh2-164" value="" style="edgeStyle=orthogonalEdgeStyle;rounded=0;orthogonalLoop=1;jettySize=auto;html=1;fontFamily=Verdana;fontSize=8;fontColor=default;fillColor=#dae8fc;strokeColor=#6c8ebf;" edge="1" parent="0P405ycxDc1SztrLUxh2-103" source="0P405ycxDc1SztrLUxh2-160" target="0P405ycxDc1SztrLUxh2-163">
          <mxGeometry relative="1" as="geometry" />
        </mxCell>
        <mxCell id="0P405ycxDc1SztrLUxh2-165" value="" style="edgeStyle=orthogonalEdgeStyle;rounded=0;orthogonalLoop=1;jettySize=auto;html=1;fontFamily=Verdana;fontSize=8;fontColor=default;fillColor=#dae8fc;strokeColor=#6c8ebf;" edge="1" parent="0P405ycxDc1SztrLUxh2-103" source="0P405ycxDc1SztrLUxh2-166" target="0P405ycxDc1SztrLUxh2-168">
          <mxGeometry relative="1" as="geometry" />
        </mxCell>
        <mxCell id="0P405ycxDc1SztrLUxh2-166" value="锻造3" style="rounded=1;whiteSpace=wrap;html=1;shadow=0;labelBackgroundColor=none;strokeWidth=1;fontFamily=Verdana;fontSize=8;align=center;fillColor=#dae8fc;strokeColor=#6c8ebf;" vertex="1" parent="0P405ycxDc1SztrLUxh2-103">
          <mxGeometry x="30" y="330" width="70" height="25" as="geometry" />
        </mxCell>
        <mxCell id="0P405ycxDc1SztrLUxh2-167" value="" style="edgeStyle=orthogonalEdgeStyle;rounded=0;orthogonalLoop=1;jettySize=auto;html=1;fontFamily=Verdana;fontSize=8;fontColor=default;fillColor=#dae8fc;strokeColor=#6c8ebf;" edge="1" parent="0P405ycxDc1SztrLUxh2-103" source="0P405ycxDc1SztrLUxh2-168" target="0P405ycxDc1SztrLUxh2-170">
          <mxGeometry relative="1" as="geometry" />
        </mxCell>
        <mxCell id="0P405ycxDc1SztrLUxh2-168" value="切断头" style="rounded=1;whiteSpace=wrap;html=1;shadow=0;labelBackgroundColor=none;strokeWidth=1;fontFamily=Verdana;fontSize=8;align=center;fillColor=#dae8fc;strokeColor=#6c8ebf;" vertex="1" parent="0P405ycxDc1SztrLUxh2-103">
          <mxGeometry x="30" y="380" width="70" height="25" as="geometry" />
        </mxCell>
        <mxCell id="0P405ycxDc1SztrLUxh2-169" style="edgeStyle=orthogonalEdgeStyle;rounded=0;orthogonalLoop=1;jettySize=auto;html=1;exitX=0.5;exitY=1;exitDx=0;exitDy=0;entryX=0.5;entryY=0;entryDx=0;entryDy=0;fontFamily=Verdana;fontSize=8;fontColor=default;" edge="1" parent="0P405ycxDc1SztrLUxh2-103" source="0P405ycxDc1SztrLUxh2-170" target="0P405ycxDc1SztrLUxh2-172">
          <mxGeometry relative="1" as="geometry" />
        </mxCell>
        <mxCell id="0P405ycxDc1SztrLUxh2-170" value="扒皮" style="rounded=1;whiteSpace=wrap;html=1;shadow=0;labelBackgroundColor=none;strokeWidth=1;fontFamily=Verdana;fontSize=8;align=center;fillColor=#dae8fc;strokeColor=#6c8ebf;" vertex="1" parent="0P405ycxDc1SztrLUxh2-103">
          <mxGeometry x="30" y="430" width="70" height="25" as="geometry" />
        </mxCell>
        <mxCell id="0P405ycxDc1SztrLUxh2-171" style="edgeStyle=orthogonalEdgeStyle;rounded=0;orthogonalLoop=1;jettySize=auto;html=1;exitX=0.5;exitY=1;exitDx=0;exitDy=0;entryX=0.5;entryY=0;entryDx=0;entryDy=0;fontFamily=Verdana;fontSize=8;fontColor=default;" edge="1" parent="0P405ycxDc1SztrLUxh2-103" source="0P405ycxDc1SztrLUxh2-172" target="0P405ycxDc1SztrLUxh2-174">
          <mxGeometry relative="1" as="geometry" />
        </mxCell>
        <mxCell id="0P405ycxDc1SztrLUxh2-172" value="虚拟入库" style="rounded=1;whiteSpace=wrap;html=1;shadow=0;labelBackgroundColor=none;strokeWidth=1;fontFamily=Verdana;fontSize=8;align=center;dashed=1;dashPattern=8 8;fillColor=#d5e8d4;strokeColor=#82b366;" vertex="1" parent="0P405ycxDc1SztrLUxh2-103">
          <mxGeometry x="30" y="480" width="70" height="25" as="geometry" />
        </mxCell>
        <mxCell id="0P405ycxDc1SztrLUxh2-173" style="edgeStyle=orthogonalEdgeStyle;rounded=0;orthogonalLoop=1;jettySize=auto;html=1;exitX=0.5;exitY=1;exitDx=0;exitDy=0;entryX=0.5;entryY=0;entryDx=0;entryDy=0;fontFamily=Verdana;fontSize=8;fontColor=default;fillColor=#dae8fc;strokeColor=#6c8ebf;" edge="1" parent="0P405ycxDc1SztrLUxh2-103" source="0P405ycxDc1SztrLUxh2-174" target="0P405ycxDc1SztrLUxh2-175">
          <mxGeometry relative="1" as="geometry" />
        </mxCell>
        <mxCell id="0P405ycxDc1SztrLUxh2-174" value="切断" style="rounded=1;whiteSpace=wrap;html=1;shadow=0;labelBackgroundColor=none;strokeWidth=1;fontFamily=Verdana;fontSize=8;align=center;fillColor=#dae8fc;strokeColor=#6c8ebf;" vertex="1" parent="0P405ycxDc1SztrLUxh2-103">
          <mxGeometry x="30" y="530" width="70" height="25" as="geometry" />
        </mxCell>
        <mxCell id="0P405ycxDc1SztrLUxh2-175" value="酸洗3" style="rounded=1;whiteSpace=wrap;html=1;shadow=0;labelBackgroundColor=none;strokeWidth=1;fontFamily=Verdana;fontSize=8;align=center;fillColor=#dae8fc;strokeColor=#6c8ebf;" vertex="1" parent="0P405ycxDc1SztrLUxh2-103">
          <mxGeometry x="30" y="580" width="70" height="25" as="geometry" />
        </mxCell>
        <mxCell id="0P405ycxDc1SztrLUxh2-176" value="" style="edgeStyle=orthogonalEdgeStyle;rounded=0;orthogonalLoop=1;jettySize=auto;html=1;" edge="1" parent="0P405ycxDc1SztrLUxh2-103" source="0P405ycxDc1SztrLUxh2-177" target="0P405ycxDc1SztrLUxh2-205">
          <mxGeometry relative="1" as="geometry" />
        </mxCell>
        <mxCell id="0P405ycxDc1SztrLUxh2-177" value="热处理3" style="rounded=1;whiteSpace=wrap;html=1;shadow=0;labelBackgroundColor=none;strokeWidth=1;fontFamily=Verdana;fontSize=8;align=center;fillColor=#dae8fc;strokeColor=#6c8ebf;" vertex="1" parent="0P405ycxDc1SztrLUxh2-103">
          <mxGeometry x="30" y="624" width="70" height="25" as="geometry" />
        </mxCell>
        <mxCell id="0P405ycxDc1SztrLUxh2-178" value="" style="edgeStyle=orthogonalEdgeStyle;rounded=0;orthogonalLoop=1;jettySize=auto;html=1;fontFamily=Verdana;fontSize=8;fontColor=default;fillColor=#dae8fc;strokeColor=#6c8ebf;" edge="1" parent="0P405ycxDc1SztrLUxh2-103" source="0P405ycxDc1SztrLUxh2-175" target="0P405ycxDc1SztrLUxh2-177">
          <mxGeometry relative="1" as="geometry" />
        </mxCell>
        <mxCell id="0P405ycxDc1SztrLUxh2-179" value="粗轧" style="rounded=1;whiteSpace=wrap;html=1;shadow=0;labelBackgroundColor=none;strokeWidth=1;fontFamily=Verdana;fontSize=8;align=center;fillColor=#dae8fc;strokeColor=#6c8ebf;" vertex="1" parent="0P405ycxDc1SztrLUxh2-103">
          <mxGeometry x="30" y="840" width="70" height="25" as="geometry" />
        </mxCell>
        <mxCell id="0P405ycxDc1SztrLUxh2-180" value="精轧" style="rounded=1;whiteSpace=wrap;html=1;shadow=0;labelBackgroundColor=none;strokeWidth=1;fontFamily=Verdana;fontSize=8;align=center;fillColor=#dae8fc;strokeColor=#6c8ebf;" vertex="1" parent="0P405ycxDc1SztrLUxh2-103">
          <mxGeometry x="30" y="890" width="70" height="25" as="geometry" />
        </mxCell>
        <mxCell id="0P405ycxDc1SztrLUxh2-181" value="" style="edgeStyle=orthogonalEdgeStyle;rounded=0;orthogonalLoop=1;jettySize=auto;html=1;fontFamily=Verdana;fontSize=8;fontColor=default;fillColor=#dae8fc;strokeColor=#6c8ebf;" edge="1" parent="0P405ycxDc1SztrLUxh2-103" source="0P405ycxDc1SztrLUxh2-179" target="0P405ycxDc1SztrLUxh2-180">
          <mxGeometry relative="1" as="geometry" />
        </mxCell>
        <mxCell id="0P405ycxDc1SztrLUxh2-182" value="酸洗4" style="rounded=1;whiteSpace=wrap;html=1;shadow=0;labelBackgroundColor=none;strokeWidth=1;fontFamily=Verdana;fontSize=8;align=center;fillColor=#dae8fc;strokeColor=#6c8ebf;" vertex="1" parent="0P405ycxDc1SztrLUxh2-103">
          <mxGeometry x="30" y="937" width="70" height="25" as="geometry" />
        </mxCell>
        <mxCell id="0P405ycxDc1SztrLUxh2-183" value="" style="edgeStyle=orthogonalEdgeStyle;rounded=0;orthogonalLoop=1;jettySize=auto;html=1;fontFamily=Verdana;fontSize=8;fontColor=default;" edge="1" parent="0P405ycxDc1SztrLUxh2-103" source="0P405ycxDc1SztrLUxh2-180" target="0P405ycxDc1SztrLUxh2-182">
          <mxGeometry relative="1" as="geometry" />
        </mxCell>
        <mxCell id="0P405ycxDc1SztrLUxh2-184" value="热处理4" style="rounded=1;whiteSpace=wrap;html=1;shadow=0;labelBackgroundColor=none;strokeWidth=1;fontFamily=Verdana;fontSize=8;align=center;fillColor=#dae8fc;strokeColor=#6c8ebf;" vertex="1" parent="0P405ycxDc1SztrLUxh2-103">
          <mxGeometry x="30" y="987" width="70" height="25" as="geometry" />
        </mxCell>
        <mxCell id="0P405ycxDc1SztrLUxh2-185" value="" style="edgeStyle=orthogonalEdgeStyle;rounded=0;orthogonalLoop=1;jettySize=auto;html=1;fontFamily=Verdana;fontSize=8;fontColor=default;" edge="1" parent="0P405ycxDc1SztrLUxh2-103" source="0P405ycxDc1SztrLUxh2-182" target="0P405ycxDc1SztrLUxh2-184">
          <mxGeometry relative="1" as="geometry" />
        </mxCell>
        <mxCell id="0P405ycxDc1SztrLUxh2-186" value="剪边取样" style="rounded=1;whiteSpace=wrap;html=1;shadow=0;labelBackgroundColor=none;strokeWidth=1;fontFamily=Verdana;fontSize=8;align=center;fillColor=#dae8fc;strokeColor=#6c8ebf;" vertex="1" parent="0P405ycxDc1SztrLUxh2-103">
          <mxGeometry x="30" y="1037" width="70" height="25" as="geometry" />
        </mxCell>
        <mxCell id="0P405ycxDc1SztrLUxh2-187" value="" style="edgeStyle=orthogonalEdgeStyle;rounded=0;orthogonalLoop=1;jettySize=auto;html=1;fontFamily=Verdana;fontSize=8;fontColor=default;" edge="1" parent="0P405ycxDc1SztrLUxh2-103" source="0P405ycxDc1SztrLUxh2-184" target="0P405ycxDc1SztrLUxh2-186">
          <mxGeometry relative="1" as="geometry" />
        </mxCell>
        <mxCell id="0P405ycxDc1SztrLUxh2-188" style="edgeStyle=orthogonalEdgeStyle;rounded=0;orthogonalLoop=1;jettySize=auto;html=1;exitX=0.5;exitY=1;exitDx=0;exitDy=0;entryX=0.5;entryY=0;entryDx=0;entryDy=0;" edge="1" parent="0P405ycxDc1SztrLUxh2-103" source="0P405ycxDc1SztrLUxh2-189" target="0P405ycxDc1SztrLUxh2-191">
          <mxGeometry relative="1" as="geometry" />
        </mxCell>
        <mxCell id="0P405ycxDc1SztrLUxh2-189" value="校平" style="rounded=1;whiteSpace=wrap;html=1;shadow=0;labelBackgroundColor=none;strokeWidth=1;fontFamily=Verdana;fontSize=8;align=center;fillColor=#dae8fc;strokeColor=#6c8ebf;" vertex="1" parent="0P405ycxDc1SztrLUxh2-103">
          <mxGeometry x="30" y="1080" width="70" height="25" as="geometry" />
        </mxCell>
        <mxCell id="0P405ycxDc1SztrLUxh2-190" value="" style="edgeStyle=orthogonalEdgeStyle;rounded=0;orthogonalLoop=1;jettySize=auto;html=1;fontFamily=Verdana;fontSize=8;fontColor=default;" edge="1" parent="0P405ycxDc1SztrLUxh2-103" source="0P405ycxDc1SztrLUxh2-186" target="0P405ycxDc1SztrLUxh2-189">
          <mxGeometry relative="1" as="geometry" />
        </mxCell>
        <mxCell id="0P405ycxDc1SztrLUxh2-191" value="外圆车削" style="rounded=1;whiteSpace=wrap;html=1;shadow=0;labelBackgroundColor=none;strokeWidth=1;fontFamily=Verdana;fontSize=8;align=center;fillColor=#dae8fc;strokeColor=#6c8ebf;" vertex="1" parent="0P405ycxDc1SztrLUxh2-103">
          <mxGeometry x="30" y="1117" width="70" height="25" as="geometry" />
        </mxCell>
        <mxCell id="0P405ycxDc1SztrLUxh2-192" value="刻字" style="rounded=1;whiteSpace=wrap;html=1;shadow=0;labelBackgroundColor=none;strokeWidth=1;fontFamily=Verdana;fontSize=8;align=center;fillColor=#dae8fc;strokeColor=#6c8ebf;" vertex="1" parent="0P405ycxDc1SztrLUxh2-103">
          <mxGeometry x="30" y="1157" width="70" height="25" as="geometry" />
        </mxCell>
        <mxCell id="0P405ycxDc1SztrLUxh2-193" value="" style="edgeStyle=orthogonalEdgeStyle;rounded=0;orthogonalLoop=1;jettySize=auto;html=1;fontFamily=Verdana;fontSize=8;fontColor=default;fillColor=#dae8fc;strokeColor=#6c8ebf;" edge="1" parent="0P405ycxDc1SztrLUxh2-103" source="0P405ycxDc1SztrLUxh2-191" target="0P405ycxDc1SztrLUxh2-192">
          <mxGeometry relative="1" as="geometry" />
        </mxCell>
        <mxCell id="0P405ycxDc1SztrLUxh2-194" value="车削1" style="rounded=1;whiteSpace=wrap;html=1;shadow=0;labelBackgroundColor=none;strokeWidth=1;fontFamily=Verdana;fontSize=8;align=center;fillColor=#dae8fc;strokeColor=#6c8ebf;" vertex="1" parent="0P405ycxDc1SztrLUxh2-103">
          <mxGeometry x="30" y="1197" width="70" height="25" as="geometry" />
        </mxCell>
        <mxCell id="0P405ycxDc1SztrLUxh2-195" value="" style="edgeStyle=orthogonalEdgeStyle;rounded=0;orthogonalLoop=1;jettySize=auto;html=1;fontFamily=Verdana;fontSize=8;fontColor=default;fillColor=#dae8fc;strokeColor=#6c8ebf;" edge="1" parent="0P405ycxDc1SztrLUxh2-103" source="0P405ycxDc1SztrLUxh2-192" target="0P405ycxDc1SztrLUxh2-194">
          <mxGeometry relative="1" as="geometry" />
        </mxCell>
        <mxCell id="0P405ycxDc1SztrLUxh2-196" value="车削2" style="rounded=1;whiteSpace=wrap;html=1;shadow=0;labelBackgroundColor=none;strokeWidth=1;fontFamily=Verdana;fontSize=8;align=center;fillColor=#dae8fc;strokeColor=#6c8ebf;" vertex="1" parent="0P405ycxDc1SztrLUxh2-103">
          <mxGeometry x="30" y="1237" width="70" height="25" as="geometry" />
        </mxCell>
        <mxCell id="0P405ycxDc1SztrLUxh2-197" value="" style="edgeStyle=orthogonalEdgeStyle;rounded=0;orthogonalLoop=1;jettySize=auto;html=1;fontFamily=Verdana;fontSize=8;fontColor=default;fillColor=#dae8fc;strokeColor=#6c8ebf;" edge="1" parent="0P405ycxDc1SztrLUxh2-103" source="0P405ycxDc1SztrLUxh2-194" target="0P405ycxDc1SztrLUxh2-196">
          <mxGeometry relative="1" as="geometry" />
        </mxCell>
        <mxCell id="0P405ycxDc1SztrLUxh2-198" value="车削3" style="rounded=1;whiteSpace=wrap;html=1;shadow=0;labelBackgroundColor=none;strokeWidth=1;fontFamily=Verdana;fontSize=8;align=center;fillColor=#dae8fc;strokeColor=#6c8ebf;" vertex="1" parent="0P405ycxDc1SztrLUxh2-103">
          <mxGeometry x="30" y="1280" width="70" height="25" as="geometry" />
        </mxCell>
        <mxCell id="0P405ycxDc1SztrLUxh2-199" value="" style="edgeStyle=orthogonalEdgeStyle;rounded=0;orthogonalLoop=1;jettySize=auto;html=1;fontFamily=Verdana;fontSize=8;fontColor=default;fillColor=#dae8fc;strokeColor=#6c8ebf;" edge="1" parent="0P405ycxDc1SztrLUxh2-103" source="0P405ycxDc1SztrLUxh2-196" target="0P405ycxDc1SztrLUxh2-198">
          <mxGeometry relative="1" as="geometry" />
        </mxCell>
        <mxCell id="0P405ycxDc1SztrLUxh2-200" value="成品检测" style="rounded=1;whiteSpace=wrap;html=1;shadow=0;labelBackgroundColor=none;strokeWidth=1;fontFamily=Verdana;fontSize=8;align=center;fillColor=#ffe6cc;strokeColor=#d79b00;" vertex="1" parent="0P405ycxDc1SztrLUxh2-103">
          <mxGeometry x="30" y="1325" width="70" height="25" as="geometry" />
        </mxCell>
        <mxCell id="0P405ycxDc1SztrLUxh2-201" value="" style="edgeStyle=orthogonalEdgeStyle;rounded=0;orthogonalLoop=1;jettySize=auto;html=1;fontFamily=Verdana;fontSize=8;fontColor=default;" edge="1" parent="0P405ycxDc1SztrLUxh2-103" source="0P405ycxDc1SztrLUxh2-198" target="0P405ycxDc1SztrLUxh2-200">
          <mxGeometry relative="1" as="geometry" />
        </mxCell>
        <mxCell id="0P405ycxDc1SztrLUxh2-202" style="edgeStyle=orthogonalEdgeStyle;rounded=0;orthogonalLoop=1;jettySize=auto;html=1;exitX=0.5;exitY=1;exitDx=0;exitDy=0;entryX=0.5;entryY=0;entryDx=0;entryDy=0;" edge="1" parent="0P405ycxDc1SztrLUxh2-103" source="0P405ycxDc1SztrLUxh2-203" target="0P405ycxDc1SztrLUxh2-115">
          <mxGeometry relative="1" as="geometry" />
        </mxCell>
        <mxCell id="0P405ycxDc1SztrLUxh2-203" value="校平" style="rounded=1;whiteSpace=wrap;html=1;shadow=0;labelBackgroundColor=none;strokeWidth=1;fontFamily=Verdana;fontSize=8;align=center;fillColor=#dae8fc;strokeColor=#6c8ebf;" vertex="1" parent="0P405ycxDc1SztrLUxh2-103">
          <mxGeometry x="160" y="234.75" width="70" height="25" as="geometry" />
        </mxCell>
        <mxCell id="0P405ycxDc1SztrLUxh2-204" value="" style="edgeStyle=orthogonalEdgeStyle;rounded=0;orthogonalLoop=1;jettySize=auto;html=1;dashed=1;" edge="1" parent="0P405ycxDc1SztrLUxh2-103" source="0P405ycxDc1SztrLUxh2-205" target="0P405ycxDc1SztrLUxh2-207">
          <mxGeometry relative="1" as="geometry" />
        </mxCell>
        <mxCell id="0P405ycxDc1SztrLUxh2-205" value="镦粗" style="rounded=1;whiteSpace=wrap;html=1;shadow=0;labelBackgroundColor=none;strokeWidth=1;fontFamily=Verdana;fontSize=8;align=center;fillColor=#dae8fc;strokeColor=#6c8ebf;dashed=1;" vertex="1" parent="0P405ycxDc1SztrLUxh2-103">
          <mxGeometry x="30" y="673" width="70" height="25" as="geometry" />
        </mxCell>
        <mxCell id="0P405ycxDc1SztrLUxh2-206" style="edgeStyle=orthogonalEdgeStyle;rounded=0;orthogonalLoop=1;jettySize=auto;html=1;exitX=0.5;exitY=1;exitDx=0;exitDy=0;entryX=0.5;entryY=0;entryDx=0;entryDy=0;dashed=1;" edge="1" parent="0P405ycxDc1SztrLUxh2-103" source="0P405ycxDc1SztrLUxh2-207" target="0P405ycxDc1SztrLUxh2-209">
          <mxGeometry relative="1" as="geometry" />
        </mxCell>
        <mxCell id="0P405ycxDc1SztrLUxh2-207" value="酸洗4" style="rounded=1;whiteSpace=wrap;html=1;shadow=0;labelBackgroundColor=none;strokeWidth=1;fontFamily=Verdana;fontSize=8;align=center;fillColor=#dae8fc;strokeColor=#6c8ebf;dashed=1;" vertex="1" parent="0P405ycxDc1SztrLUxh2-103">
          <mxGeometry x="30" y="723" width="70" height="25" as="geometry" />
        </mxCell>
        <mxCell id="0P405ycxDc1SztrLUxh2-208" style="edgeStyle=orthogonalEdgeStyle;rounded=0;orthogonalLoop=1;jettySize=auto;html=1;exitX=0.5;exitY=1;exitDx=0;exitDy=0;entryX=0.5;entryY=0;entryDx=0;entryDy=0;" edge="1" parent="0P405ycxDc1SztrLUxh2-103" source="0P405ycxDc1SztrLUxh2-209" target="0P405ycxDc1SztrLUxh2-179">
          <mxGeometry relative="1" as="geometry" />
        </mxCell>
        <mxCell id="0P405ycxDc1SztrLUxh2-209" value="热处理4" style="rounded=1;whiteSpace=wrap;html=1;shadow=0;labelBackgroundColor=none;strokeWidth=1;fontFamily=Verdana;fontSize=8;align=center;fillColor=#dae8fc;strokeColor=#6c8ebf;dashed=1;" vertex="1" parent="0P405ycxDc1SztrLUxh2-103">
          <mxGeometry x="30" y="780" width="70" height="25" as="geometry" />
        </mxCell>
        <mxCell id="0P405ycxDc1SztrLUxh2-210" value="" style="edgeStyle=orthogonalEdgeStyle;rounded=0;orthogonalLoop=1;jettySize=auto;html=1;" edge="1" parent="0P405ycxDc1SztrLUxh2-103" source="0P405ycxDc1SztrLUxh2-211" target="0P405ycxDc1SztrLUxh2-213">
          <mxGeometry relative="1" as="geometry" />
        </mxCell>
        <mxCell id="0P405ycxDc1SztrLUxh2-211" value="委外加工1" style="rounded=1;whiteSpace=wrap;html=1;shadow=0;labelBackgroundColor=none;strokeWidth=1;fontFamily=Verdana;fontSize=8;align=center;fillColor=#e1d5e7;strokeColor=#9673a6;" vertex="1" parent="0P405ycxDc1SztrLUxh2-103">
          <mxGeometry x="282" y="45" width="70" height="25" as="geometry" />
        </mxCell>
        <mxCell id="0P405ycxDc1SztrLUxh2-212" style="edgeStyle=orthogonalEdgeStyle;rounded=0;orthogonalLoop=1;jettySize=auto;html=1;exitX=0.5;exitY=1;exitDx=0;exitDy=0;entryX=0.5;entryY=0;entryDx=0;entryDy=0;" edge="1" parent="0P405ycxDc1SztrLUxh2-103" source="0P405ycxDc1SztrLUxh2-213" target="0P405ycxDc1SztrLUxh2-214">
          <mxGeometry relative="1" as="geometry" />
        </mxCell>
        <mxCell id="0P405ycxDc1SztrLUxh2-213" value="粗钽棒" style="ellipse;whiteSpace=wrap;html=1;fontSize=8;fontFamily=Verdana;fillColor=#d5e8d4;strokeColor=#82b366;rounded=1;shadow=0;labelBackgroundColor=none;strokeWidth=1;" vertex="1" parent="0P405ycxDc1SztrLUxh2-103">
          <mxGeometry x="297" y="85.5" width="40" height="37.5" as="geometry" />
        </mxCell>
        <mxCell id="0P405ycxDc1SztrLUxh2-214" value="车削" style="rounded=1;whiteSpace=wrap;html=1;shadow=0;labelBackgroundColor=none;strokeWidth=1;fontFamily=Verdana;fontSize=8;align=center;fillColor=#dae8fc;strokeColor=#6c8ebf;" vertex="1" parent="0P405ycxDc1SztrLUxh2-103">
          <mxGeometry x="282" y="140" width="70" height="25" as="geometry" />
        </mxCell>
        <mxCell id="0P405ycxDc1SztrLUxh2-215" style="edgeStyle=orthogonalEdgeStyle;rounded=0;orthogonalLoop=1;jettySize=auto;html=1;exitX=0.5;exitY=1;exitDx=0;exitDy=0;entryX=0.5;entryY=0;entryDx=0;entryDy=0;" edge="1" parent="0P405ycxDc1SztrLUxh2-103" source="0P405ycxDc1SztrLUxh2-216" target="0P405ycxDc1SztrLUxh2-219">
          <mxGeometry relative="1" as="geometry" />
        </mxCell>
        <mxCell id="0P405ycxDc1SztrLUxh2-216" value="切断" style="rounded=1;whiteSpace=wrap;html=1;shadow=0;labelBackgroundColor=none;strokeWidth=1;fontFamily=Verdana;fontSize=8;align=center;fillColor=#dae8fc;strokeColor=#6c8ebf;" vertex="1" parent="0P405ycxDc1SztrLUxh2-103">
          <mxGeometry x="282" y="190" width="70" height="25" as="geometry" />
        </mxCell>
        <mxCell id="0P405ycxDc1SztrLUxh2-217" value="" style="edgeStyle=orthogonalEdgeStyle;rounded=0;orthogonalLoop=1;jettySize=auto;html=1;fontFamily=Verdana;fontSize=8;fontColor=default;fillColor=#dae8fc;strokeColor=#6c8ebf;" edge="1" parent="0P405ycxDc1SztrLUxh2-103" source="0P405ycxDc1SztrLUxh2-214" target="0P405ycxDc1SztrLUxh2-216">
          <mxGeometry relative="1" as="geometry" />
        </mxCell>
        <mxCell id="0P405ycxDc1SztrLUxh2-218" style="edgeStyle=orthogonalEdgeStyle;rounded=0;orthogonalLoop=1;jettySize=auto;html=1;exitX=0.5;exitY=1;exitDx=0;exitDy=0;entryX=0.5;entryY=0;entryDx=0;entryDy=0;" edge="1" parent="0P405ycxDc1SztrLUxh2-103" source="0P405ycxDc1SztrLUxh2-219" target="0P405ycxDc1SztrLUxh2-221">
          <mxGeometry relative="1" as="geometry" />
        </mxCell>
        <mxCell id="0P405ycxDc1SztrLUxh2-219" value="委外加工2" style="rounded=1;whiteSpace=wrap;html=1;shadow=0;labelBackgroundColor=none;strokeWidth=1;fontFamily=Verdana;fontSize=8;align=center;fillColor=#e1d5e7;strokeColor=#9673a6;" vertex="1" parent="0P405ycxDc1SztrLUxh2-103">
          <mxGeometry x="282" y="234.75" width="70" height="25" as="geometry" />
        </mxCell>
        <mxCell id="0P405ycxDc1SztrLUxh2-220" style="edgeStyle=orthogonalEdgeStyle;rounded=0;orthogonalLoop=1;jettySize=auto;html=1;exitX=0.5;exitY=1;exitDx=0;exitDy=0;entryX=0.5;entryY=0;entryDx=0;entryDy=0;" edge="1" parent="0P405ycxDc1SztrLUxh2-103" source="0P405ycxDc1SztrLUxh2-221" target="0P405ycxDc1SztrLUxh2-222">
          <mxGeometry relative="1" as="geometry" />
        </mxCell>
        <mxCell id="0P405ycxDc1SztrLUxh2-221" value="细钽棒" style="ellipse;whiteSpace=wrap;html=1;fontSize=8;fontFamily=Verdana;fillColor=#d5e8d4;strokeColor=#82b366;rounded=1;shadow=0;labelBackgroundColor=none;strokeWidth=1;" vertex="1" parent="0P405ycxDc1SztrLUxh2-103">
          <mxGeometry x="297" y="278.5" width="40" height="37.5" as="geometry" />
        </mxCell>
        <mxCell id="0P405ycxDc1SztrLUxh2-222" value="线切割" style="rounded=1;whiteSpace=wrap;html=1;shadow=0;labelBackgroundColor=none;strokeWidth=1;fontFamily=Verdana;fontSize=8;align=center;fillColor=#dae8fc;strokeColor=#6c8ebf;" vertex="1" parent="0P405ycxDc1SztrLUxh2-103">
          <mxGeometry x="282" y="330" width="70" height="25" as="geometry" />
        </mxCell>
        <mxCell id="0P405ycxDc1SztrLUxh2-223" value="酸洗1" style="rounded=1;whiteSpace=wrap;html=1;shadow=0;labelBackgroundColor=none;strokeWidth=1;fontFamily=Verdana;fontSize=8;align=center;fillColor=#dae8fc;strokeColor=#6c8ebf;" vertex="1" parent="0P405ycxDc1SztrLUxh2-103">
          <mxGeometry x="282" y="375.25" width="70" height="25" as="geometry" />
        </mxCell>
        <mxCell id="0P405ycxDc1SztrLUxh2-224" value="" style="edgeStyle=orthogonalEdgeStyle;rounded=0;orthogonalLoop=1;jettySize=auto;html=1;fontFamily=Verdana;fontSize=8;fontColor=default;fillColor=#dae8fc;strokeColor=#6c8ebf;" edge="1" parent="0P405ycxDc1SztrLUxh2-103" source="0P405ycxDc1SztrLUxh2-222" target="0P405ycxDc1SztrLUxh2-223">
          <mxGeometry relative="1" as="geometry" />
        </mxCell>
        <mxCell id="0P405ycxDc1SztrLUxh2-225" style="edgeStyle=orthogonalEdgeStyle;rounded=0;orthogonalLoop=1;jettySize=auto;html=1;exitX=0.5;exitY=1;exitDx=0;exitDy=0;entryX=0.5;entryY=0;entryDx=0;entryDy=0;" edge="1" parent="0P405ycxDc1SztrLUxh2-103" source="0P405ycxDc1SztrLUxh2-226" target="0P405ycxDc1SztrLUxh2-228">
          <mxGeometry relative="1" as="geometry" />
        </mxCell>
        <mxCell id="0P405ycxDc1SztrLUxh2-226" value="热处理1" style="rounded=1;whiteSpace=wrap;html=1;shadow=0;labelBackgroundColor=none;strokeWidth=1;fontFamily=Verdana;fontSize=8;align=center;fillColor=#dae8fc;strokeColor=#6c8ebf;" vertex="1" parent="0P405ycxDc1SztrLUxh2-103">
          <mxGeometry x="282" y="425.25" width="70" height="25" as="geometry" />
        </mxCell>
        <mxCell id="0P405ycxDc1SztrLUxh2-227" value="" style="edgeStyle=orthogonalEdgeStyle;rounded=0;orthogonalLoop=1;jettySize=auto;html=1;fontFamily=Verdana;fontSize=8;fontColor=default;fillColor=#dae8fc;strokeColor=#6c8ebf;" edge="1" parent="0P405ycxDc1SztrLUxh2-103" source="0P405ycxDc1SztrLUxh2-223" target="0P405ycxDc1SztrLUxh2-226">
          <mxGeometry relative="1" as="geometry" />
        </mxCell>
        <mxCell id="0P405ycxDc1SztrLUxh2-228" value="委外加工3" style="rounded=1;whiteSpace=wrap;html=1;shadow=0;labelBackgroundColor=none;strokeWidth=1;fontFamily=Verdana;fontSize=8;align=center;fillColor=#e1d5e7;strokeColor=#9673a6;" vertex="1" parent="0P405ycxDc1SztrLUxh2-103">
          <mxGeometry x="282" y="473.75" width="70" height="25" as="geometry" />
        </mxCell>
        <mxCell id="0P405ycxDc1SztrLUxh2-229" style="edgeStyle=orthogonalEdgeStyle;rounded=0;orthogonalLoop=1;jettySize=auto;html=1;exitX=0.5;exitY=1;exitDx=0;exitDy=0;entryX=0.5;entryY=0;entryDx=0;entryDy=0;" edge="1" parent="0P405ycxDc1SztrLUxh2-103" source="0P405ycxDc1SztrLUxh2-230" target="0P405ycxDc1SztrLUxh2-232">
          <mxGeometry relative="1" as="geometry" />
        </mxCell>
        <mxCell id="0P405ycxDc1SztrLUxh2-230" value="knob半成品" style="ellipse;whiteSpace=wrap;html=1;fontSize=8;fontFamily=Verdana;fillColor=#d5e8d4;strokeColor=#82b366;rounded=1;shadow=0;labelBackgroundColor=none;strokeWidth=1;" vertex="1" parent="0P405ycxDc1SztrLUxh2-103">
          <mxGeometry x="297" y="517.5" width="40" height="37.5" as="geometry" />
        </mxCell>
        <mxCell id="0P405ycxDc1SztrLUxh2-231" style="edgeStyle=orthogonalEdgeStyle;rounded=0;orthogonalLoop=1;jettySize=auto;html=1;exitX=0.5;exitY=1;exitDx=0;exitDy=0;entryX=0.5;entryY=0;entryDx=0;entryDy=0;" edge="1" parent="0P405ycxDc1SztrLUxh2-103" source="0P405ycxDc1SztrLUxh2-228" target="0P405ycxDc1SztrLUxh2-230">
          <mxGeometry relative="1" as="geometry" />
        </mxCell>
        <mxCell id="0P405ycxDc1SztrLUxh2-232" value="酸洗2" style="rounded=1;whiteSpace=wrap;html=1;shadow=0;labelBackgroundColor=none;strokeWidth=1;fontFamily=Verdana;fontSize=8;align=center;fillColor=#dae8fc;strokeColor=#6c8ebf;" vertex="1" parent="0P405ycxDc1SztrLUxh2-103">
          <mxGeometry x="282" y="580" width="70" height="25" as="geometry" />
        </mxCell>
        <mxCell id="0P405ycxDc1SztrLUxh2-233" value="热处理2" style="rounded=1;whiteSpace=wrap;html=1;shadow=0;labelBackgroundColor=none;strokeWidth=1;fontFamily=Verdana;fontSize=8;align=center;fillColor=#dae8fc;strokeColor=#6c8ebf;" vertex="1" parent="0P405ycxDc1SztrLUxh2-103">
          <mxGeometry x="282" y="629" width="70" height="25" as="geometry" />
        </mxCell>
        <mxCell id="0P405ycxDc1SztrLUxh2-234" value="" style="edgeStyle=orthogonalEdgeStyle;rounded=0;orthogonalLoop=1;jettySize=auto;html=1;fontFamily=Verdana;fontSize=8;fontColor=default;fillColor=#dae8fc;strokeColor=#6c8ebf;" edge="1" parent="0P405ycxDc1SztrLUxh2-103" source="0P405ycxDc1SztrLUxh2-232" target="0P405ycxDc1SztrLUxh2-233">
          <mxGeometry relative="1" as="geometry" />
        </mxCell>
        <mxCell id="0P405ycxDc1SztrLUxh2-235" value="表面抛磨" style="rounded=1;whiteSpace=wrap;html=1;shadow=0;labelBackgroundColor=none;strokeWidth=1;fontFamily=Verdana;fontSize=8;align=center;fillColor=#dae8fc;strokeColor=#6c8ebf;" vertex="1" parent="0P405ycxDc1SztrLUxh2-103">
          <mxGeometry x="282" y="679" width="70" height="25" as="geometry" />
        </mxCell>
        <mxCell id="0P405ycxDc1SztrLUxh2-236" value="" style="edgeStyle=orthogonalEdgeStyle;rounded=0;orthogonalLoop=1;jettySize=auto;html=1;fontFamily=Verdana;fontSize=8;fontColor=default;fillColor=#dae8fc;strokeColor=#6c8ebf;" edge="1" parent="0P405ycxDc1SztrLUxh2-103" source="0P405ycxDc1SztrLUxh2-233" target="0P405ycxDc1SztrLUxh2-235">
          <mxGeometry relative="1" as="geometry" />
        </mxCell>
        <mxCell id="0P405ycxDc1SztrLUxh2-237" value="" style="edgeStyle=orthogonalEdgeStyle;rounded=0;orthogonalLoop=1;jettySize=auto;html=1;fontFamily=Verdana;fontSize=8;fontColor=default;entryX=0.5;entryY=0;entryDx=0;entryDy=0;" edge="1" parent="0P405ycxDc1SztrLUxh2-103" source="0P405ycxDc1SztrLUxh2-235" target="0P405ycxDc1SztrLUxh2-238">
          <mxGeometry relative="1" as="geometry">
            <mxPoint x="317.0344827586207" y="736" as="targetPoint" />
          </mxGeometry>
        </mxCell>
        <mxCell id="0P405ycxDc1SztrLUxh2-238" value="成品检测" style="rounded=1;whiteSpace=wrap;html=1;shadow=0;labelBackgroundColor=none;strokeWidth=1;fontFamily=Verdana;fontSize=8;align=center;fillColor=#ffe6cc;strokeColor=#d79b00;" vertex="1" parent="0P405ycxDc1SztrLUxh2-103">
          <mxGeometry x="282" y="737" width="70" height="25" as="geometry" />
        </mxCell>
        <mxCell id="0P405ycxDc1SztrLUxh2-239" style="edgeStyle=orthogonalEdgeStyle;orthogonalLoop=1;jettySize=auto;html=1;exitX=1;exitY=0.5;exitDx=0;exitDy=0;fontFamily=Verdana;fontSize=8;fontColor=default;entryX=0;entryY=0.5;entryDx=0;entryDy=0;curved=1;" edge="1" parent="0P405ycxDc1SztrLUxh2-1" source="0P405ycxDc1SztrLUxh2-6" target="0P405ycxDc1SztrLUxh2-43">
          <mxGeometry relative="1" as="geometry">
            <mxPoint x="371" y="332" as="targetPoint" />
            <Array as="points">
              <mxPoint x="105" y="357" />
              <mxPoint x="115" y="357" />
              <mxPoint x="115" y="347" />
              <mxPoint x="320" y="347" />
              <mxPoint x="320" y="167" />
              <mxPoint x="366" y="167" />
              <mxPoint x="366" y="103" />
            </Array>
            <mxPoint x="115" y="369.5" as="sourcePoint" />
          </mxGeometry>
        </mxCell>
        <mxCell id="0P405ycxDc1SztrLUxh2-240" style="edgeStyle=orthogonalEdgeStyle;rounded=0;orthogonalLoop=1;jettySize=auto;html=1;exitX=1;exitY=0.5;exitDx=0;exitDy=0;entryX=0;entryY=0.5;entryDx=0;entryDy=0;fontFamily=Verdana;fontSize=8;fontColor=default;" edge="1" parent="0P405ycxDc1SztrLUxh2-1" source="0P405ycxDc1SztrLUxh2-74" target="0P405ycxDc1SztrLUxh2-268">
          <mxGeometry relative="1" as="geometry" />
        </mxCell>
        <mxCell id="0P405ycxDc1SztrLUxh2-241" style="edgeStyle=orthogonalEdgeStyle;orthogonalLoop=1;jettySize=auto;html=1;exitX=1;exitY=1;exitDx=0;exitDy=0;entryX=0;entryY=0.5;entryDx=0;entryDy=0;fontFamily=Verdana;fontSize=8;fontColor=default;curved=1;" edge="1" parent="0P405ycxDc1SztrLUxh2-1" source="0P405ycxDc1SztrLUxh2-7" target="0P405ycxDc1SztrLUxh2-57">
          <mxGeometry relative="1" as="geometry">
            <mxPoint x="97.5" y="424" as="sourcePoint" />
          </mxGeometry>
        </mxCell>
        <mxCell id="0P405ycxDc1SztrLUxh2-242" style="edgeStyle=orthogonalEdgeStyle;rounded=0;orthogonalLoop=1;jettySize=auto;html=1;entryX=0;entryY=0.5;entryDx=0;entryDy=0;fontFamily=Verdana;fontSize=8;fontColor=default;exitX=1;exitY=0.5;exitDx=0;exitDy=0;" edge="1" parent="0P405ycxDc1SztrLUxh2-1" source="0P405ycxDc1SztrLUxh2-8" target="0P405ycxDc1SztrLUxh2-57">
          <mxGeometry relative="1" as="geometry">
            <mxPoint x="115" y="462.5454545454545" as="sourcePoint" />
          </mxGeometry>
        </mxCell>
        <mxCell id="0P405ycxDc1SztrLUxh2-243" style="edgeStyle=orthogonalEdgeStyle;rounded=0;orthogonalLoop=1;jettySize=auto;html=1;entryX=1;entryY=0.5;entryDx=0;entryDy=0;fontFamily=Verdana;fontSize=8;fontColor=default;" edge="1" parent="0P405ycxDc1SztrLUxh2-1" source="0P405ycxDc1SztrLUxh2-269" target="0P405ycxDc1SztrLUxh2-77">
          <mxGeometry relative="1" as="geometry" />
        </mxCell>
        <mxCell id="0P405ycxDc1SztrLUxh2-244" value="是" style="edgeLabel;html=1;align=center;verticalAlign=middle;resizable=0;points=[];fontSize=8;fontFamily=Verdana;fontColor=default;" vertex="1" connectable="0" parent="0P405ycxDc1SztrLUxh2-243">
          <mxGeometry x="-0.085" y="1" relative="1" as="geometry">
            <mxPoint as="offset" />
          </mxGeometry>
        </mxCell>
        <mxCell id="0P405ycxDc1SztrLUxh2-245" style="edgeStyle=orthogonalEdgeStyle;orthogonalLoop=1;jettySize=auto;html=1;fontFamily=Verdana;fontSize=8;fontColor=default;curved=1;" edge="1" parent="0P405ycxDc1SztrLUxh2-1" source="0P405ycxDc1SztrLUxh2-85" target="0P405ycxDc1SztrLUxh2-271">
          <mxGeometry relative="1" as="geometry" />
        </mxCell>
        <mxCell id="0P405ycxDc1SztrLUxh2-246" style="edgeStyle=orthogonalEdgeStyle;rounded=0;orthogonalLoop=1;jettySize=auto;html=1;entryX=1;entryY=0.5;entryDx=0;entryDy=0;fontFamily=Verdana;fontSize=8;fontColor=default;" edge="1" parent="0P405ycxDc1SztrLUxh2-1" source="0P405ycxDc1SztrLUxh2-272" target="0P405ycxDc1SztrLUxh2-88">
          <mxGeometry relative="1" as="geometry" />
        </mxCell>
        <mxCell id="0P405ycxDc1SztrLUxh2-247" value="是" style="edgeLabel;html=1;align=center;verticalAlign=middle;resizable=0;points=[];fontSize=8;fontFamily=Verdana;fontColor=default;" vertex="1" connectable="0" parent="0P405ycxDc1SztrLUxh2-246">
          <mxGeometry x="-0.1132" relative="1" as="geometry">
            <mxPoint as="offset" />
          </mxGeometry>
        </mxCell>
        <mxCell id="0P405ycxDc1SztrLUxh2-248" style="edgeStyle=orthogonalEdgeStyle;orthogonalLoop=1;jettySize=auto;html=1;exitX=0.5;exitY=1;exitDx=0;exitDy=0;entryX=0;entryY=0.5;entryDx=0;entryDy=0;fontFamily=Verdana;fontSize=8;fontColor=default;curved=1;" edge="1" parent="0P405ycxDc1SztrLUxh2-1" source="0P405ycxDc1SztrLUxh2-86" target="0P405ycxDc1SztrLUxh2-271">
          <mxGeometry relative="1" as="geometry" />
        </mxCell>
        <mxCell id="0P405ycxDc1SztrLUxh2-249" style="edgeStyle=orthogonalEdgeStyle;rounded=0;orthogonalLoop=1;jettySize=auto;html=1;entryX=1;entryY=0.5;entryDx=0;entryDy=0;fontFamily=Verdana;fontSize=8;fontColor=default;" edge="1" parent="0P405ycxDc1SztrLUxh2-1" source="0P405ycxDc1SztrLUxh2-89" target="0P405ycxDc1SztrLUxh2-9">
          <mxGeometry relative="1" as="geometry">
            <mxPoint x="115" y="552.5" as="targetPoint" />
          </mxGeometry>
        </mxCell>
        <mxCell id="0P405ycxDc1SztrLUxh2-250" style="edgeStyle=orthogonalEdgeStyle;rounded=0;orthogonalLoop=1;jettySize=auto;html=1;exitX=0;exitY=0.5;exitDx=0;exitDy=0;entryX=1;entryY=0.5;entryDx=0;entryDy=0;fontFamily=Verdana;fontSize=8;fontColor=default;" edge="1" parent="0P405ycxDc1SztrLUxh2-1" source="0P405ycxDc1SztrLUxh2-89" target="0P405ycxDc1SztrLUxh2-10">
          <mxGeometry relative="1" as="geometry">
            <mxPoint x="115" y="608.75" as="targetPoint" />
          </mxGeometry>
        </mxCell>
        <mxCell id="0P405ycxDc1SztrLUxh2-251" style="edgeStyle=orthogonalEdgeStyle;orthogonalLoop=1;jettySize=auto;html=1;exitX=1;exitY=0;exitDx=0;exitDy=0;entryX=0.25;entryY=0;entryDx=0;entryDy=0;fontFamily=Verdana;fontSize=8;fontColor=default;curved=1;" edge="1" parent="0P405ycxDc1SztrLUxh2-1" source="0P405ycxDc1SztrLUxh2-9" target="0P405ycxDc1SztrLUxh2-105">
          <mxGeometry relative="1" as="geometry">
            <Array as="points">
              <mxPoint x="95" y="507" />
              <mxPoint x="32" y="507" />
              <mxPoint x="32" y="47" />
              <mxPoint x="572" y="47" />
              <mxPoint x="572" y="65" />
            </Array>
            <mxPoint x="97.5" y="540" as="sourcePoint" />
          </mxGeometry>
        </mxCell>
        <mxCell id="0P405ycxDc1SztrLUxh2-252" value="&lt;font style=&quot;font-size: 8px;&quot;&gt;钽靶锭&lt;/font&gt;" style="edgeLabel;html=1;align=center;verticalAlign=middle;resizable=0;points=[];" vertex="1" connectable="0" parent="0P405ycxDc1SztrLUxh2-251">
          <mxGeometry x="0.8855" y="5" relative="1" as="geometry">
            <mxPoint as="offset" />
          </mxGeometry>
        </mxCell>
        <mxCell id="0P405ycxDc1SztrLUxh2-253" style="edgeStyle=orthogonalEdgeStyle;orthogonalLoop=1;jettySize=auto;html=1;exitX=1;exitY=0;exitDx=0;exitDy=0;entryX=0.164;entryY=0.02;entryDx=0;entryDy=0;entryPerimeter=0;fontFamily=Verdana;fontSize=8;fontColor=default;curved=1;" edge="1" parent="0P405ycxDc1SztrLUxh2-1" source="0P405ycxDc1SztrLUxh2-10" target="0P405ycxDc1SztrLUxh2-107">
          <mxGeometry relative="1" as="geometry">
            <Array as="points">
              <mxPoint x="95" y="590" />
              <mxPoint x="352" y="590" />
              <mxPoint x="352" y="45" />
              <mxPoint x="792" y="45" />
              <mxPoint x="792" y="66" />
            </Array>
            <mxPoint x="97.5" y="590" as="sourcePoint" />
          </mxGeometry>
        </mxCell>
        <mxCell id="0P405ycxDc1SztrLUxh2-254" value="&lt;font style=&quot;font-size: 8px;&quot;&gt;钽条锭&lt;/font&gt;" style="edgeLabel;html=1;align=center;verticalAlign=middle;resizable=0;points=[];" vertex="1" connectable="0" parent="0P405ycxDc1SztrLUxh2-253">
          <mxGeometry x="0.8526" y="-4" relative="1" as="geometry">
            <mxPoint as="offset" />
          </mxGeometry>
        </mxCell>
        <mxCell id="0P405ycxDc1SztrLUxh2-255" style="edgeStyle=orthogonalEdgeStyle;rounded=0;orthogonalLoop=1;jettySize=auto;html=1;entryX=1;entryY=0.5;entryDx=0;entryDy=0;fontFamily=Verdana;fontSize=8;fontColor=default;" edge="1" parent="0P405ycxDc1SztrLUxh2-1" source="0P405ycxDc1SztrLUxh2-154" target="0P405ycxDc1SztrLUxh2-12">
          <mxGeometry relative="1" as="geometry">
            <mxPoint x="116" y="1388.5" as="targetPoint" />
          </mxGeometry>
        </mxCell>
        <mxCell id="0P405ycxDc1SztrLUxh2-256" style="edgeStyle=orthogonalEdgeStyle;rounded=0;orthogonalLoop=1;jettySize=auto;html=1;exitX=0;exitY=0.5;exitDx=0;exitDy=0;entryX=0.984;entryY=0.376;entryDx=0;entryDy=0;fontFamily=Verdana;fontSize=8;fontColor=default;entryPerimeter=0;" edge="1" parent="0P405ycxDc1SztrLUxh2-1" source="0P405ycxDc1SztrLUxh2-200" target="0P405ycxDc1SztrLUxh2-11">
          <mxGeometry relative="1" as="geometry">
            <mxPoint x="115" y="1357.5" as="targetPoint" />
          </mxGeometry>
        </mxCell>
        <mxCell id="0P405ycxDc1SztrLUxh2-257" style="edgeStyle=orthogonalEdgeStyle;rounded=0;orthogonalLoop=1;jettySize=auto;html=1;entryX=1;entryY=0.5;entryDx=0;entryDy=0;" edge="1" parent="0P405ycxDc1SztrLUxh2-1" source="0P405ycxDc1SztrLUxh2-28" target="0P405ycxDc1SztrLUxh2-4">
          <mxGeometry relative="1" as="geometry">
            <mxPoint x="115" y="259.5" as="targetPoint" />
          </mxGeometry>
        </mxCell>
        <mxCell id="0P405ycxDc1SztrLUxh2-258" style="edgeStyle=orthogonalEdgeStyle;orthogonalLoop=1;jettySize=auto;html=1;exitX=1;exitY=0;exitDx=0;exitDy=0;entryX=0;entryY=0.5;entryDx=0;entryDy=0;curved=1;" edge="1" parent="0P405ycxDc1SztrLUxh2-1" source="0P405ycxDc1SztrLUxh2-6" target="0P405ycxDc1SztrLUxh2-91">
          <mxGeometry relative="1" as="geometry">
            <Array as="points">
              <mxPoint x="172" y="336" />
              <mxPoint x="172" y="74" />
            </Array>
          </mxGeometry>
        </mxCell>
        <mxCell id="0P405ycxDc1SztrLUxh2-259" style="edgeStyle=orthogonalEdgeStyle;orthogonalLoop=1;jettySize=auto;html=1;exitX=1;exitY=0;exitDx=0;exitDy=0;entryX=0;entryY=0.5;entryDx=0;entryDy=0;curved=1;" edge="1" parent="0P405ycxDc1SztrLUxh2-1" source="0P405ycxDc1SztrLUxh2-5" target="0P405ycxDc1SztrLUxh2-91">
          <mxGeometry relative="1" as="geometry">
            <Array as="points">
              <mxPoint x="192" y="266" />
              <mxPoint x="192" y="74" />
            </Array>
          </mxGeometry>
        </mxCell>
        <mxCell id="0P405ycxDc1SztrLUxh2-260" style="edgeStyle=orthogonalEdgeStyle;rounded=0;orthogonalLoop=1;jettySize=auto;html=1;exitX=1;exitY=1;exitDx=0;exitDy=0;entryX=0.5;entryY=1;entryDx=0;entryDy=0;" edge="1" parent="0P405ycxDc1SztrLUxh2-1" source="0P405ycxDc1SztrLUxh2-6" target="0P405ycxDc1SztrLUxh2-97">
          <mxGeometry relative="1" as="geometry">
            <mxPoint x="382" y="307" as="targetPoint" />
          </mxGeometry>
        </mxCell>
        <mxCell id="0P405ycxDc1SztrLUxh2-261" style="edgeStyle=orthogonalEdgeStyle;orthogonalLoop=1;jettySize=auto;html=1;exitX=0.75;exitY=1;exitDx=0;exitDy=0;curved=1;" edge="1" parent="0P405ycxDc1SztrLUxh2-1" source="0P405ycxDc1SztrLUxh2-100" target="0P405ycxDc1SztrLUxh2-271">
          <mxGeometry relative="1" as="geometry" />
        </mxCell>
        <mxCell id="0P405ycxDc1SztrLUxh2-262" value="检测中心" style="swimlane;html=1;startSize=20;" vertex="1" parent="0P405ycxDc1SztrLUxh2-1">
          <mxGeometry x="990" y="20" width="120" height="1387" as="geometry" />
        </mxCell>
        <mxCell id="0P405ycxDc1SztrLUxh2-263" value="取样检测" style="rounded=1;whiteSpace=wrap;html=1;shadow=0;labelBackgroundColor=none;strokeWidth=1;fontFamily=Verdana;fontSize=8;align=center;fillColor=#ffe6cc;strokeColor=#d79b00;" vertex="1" parent="0P405ycxDc1SztrLUxh2-262">
          <mxGeometry x="34" y="314" width="70" height="25" as="geometry" />
        </mxCell>
        <mxCell id="0P405ycxDc1SztrLUxh2-264" value="" style="edgeStyle=orthogonalEdgeStyle;rounded=0;orthogonalLoop=1;jettySize=auto;html=1;fontFamily=Verdana;fontSize=8;fontColor=default;" edge="1" parent="0P405ycxDc1SztrLUxh2-262" source="0P405ycxDc1SztrLUxh2-265" target="0P405ycxDc1SztrLUxh2-266">
          <mxGeometry relative="1" as="geometry" />
        </mxCell>
        <mxCell id="0P405ycxDc1SztrLUxh2-265" value="取样检测" style="rounded=1;whiteSpace=wrap;html=1;shadow=0;labelBackgroundColor=none;strokeWidth=1;fontFamily=Verdana;fontSize=8;align=center;fillColor=#ffe6cc;strokeColor=#d79b00;" vertex="1" parent="0P405ycxDc1SztrLUxh2-262">
          <mxGeometry x="39" y="70.25" width="70" height="25" as="geometry" />
        </mxCell>
        <mxCell id="0P405ycxDc1SztrLUxh2-266" value="是否合格" style="rhombus;whiteSpace=wrap;html=1;fontSize=8;fontFamily=Verdana;rounded=1;shadow=0;labelBackgroundColor=none;strokeWidth=1;fillColor=#f8cecc;strokeColor=#b85450;" vertex="1" parent="0P405ycxDc1SztrLUxh2-262">
          <mxGeometry x="44" y="110.25" width="60" height="42.5" as="geometry" />
        </mxCell>
        <mxCell id="0P405ycxDc1SztrLUxh2-267" value="" style="edgeStyle=orthogonalEdgeStyle;rounded=0;orthogonalLoop=1;jettySize=auto;html=1;fontFamily=Verdana;fontSize=8;fontColor=default;" edge="1" parent="0P405ycxDc1SztrLUxh2-262" source="0P405ycxDc1SztrLUxh2-268" target="0P405ycxDc1SztrLUxh2-269">
          <mxGeometry relative="1" as="geometry" />
        </mxCell>
        <mxCell id="0P405ycxDc1SztrLUxh2-268" value="取样检测" style="rounded=1;whiteSpace=wrap;html=1;shadow=0;labelBackgroundColor=none;strokeWidth=1;fontFamily=Verdana;fontSize=8;align=center;fillColor=#ffe6cc;strokeColor=#d79b00;" vertex="1" parent="0P405ycxDc1SztrLUxh2-262">
          <mxGeometry x="39" y="808.5" width="70" height="25" as="geometry" />
        </mxCell>
        <mxCell id="0P405ycxDc1SztrLUxh2-269" value="是否合格" style="rhombus;whiteSpace=wrap;html=1;fontSize=8;fontFamily=Verdana;rounded=1;shadow=0;labelBackgroundColor=none;strokeWidth=1;fillColor=#f8cecc;strokeColor=#b85450;" vertex="1" parent="0P405ycxDc1SztrLUxh2-262">
          <mxGeometry x="44" y="854.5" width="60" height="38.5" as="geometry" />
        </mxCell>
        <mxCell id="0P405ycxDc1SztrLUxh2-270" style="edgeStyle=orthogonalEdgeStyle;rounded=0;orthogonalLoop=1;jettySize=auto;html=1;entryX=0.5;entryY=0;entryDx=0;entryDy=0;fontFamily=Verdana;fontSize=8;fontColor=default;" edge="1" parent="0P405ycxDc1SztrLUxh2-262" source="0P405ycxDc1SztrLUxh2-271" target="0P405ycxDc1SztrLUxh2-272">
          <mxGeometry relative="1" as="geometry" />
        </mxCell>
        <mxCell id="0P405ycxDc1SztrLUxh2-271" value="取样检测" style="rounded=1;whiteSpace=wrap;html=1;shadow=0;labelBackgroundColor=none;strokeWidth=1;fontFamily=Verdana;fontSize=8;align=center;fillColor=#ffe6cc;strokeColor=#d79b00;" vertex="1" parent="0P405ycxDc1SztrLUxh2-262">
          <mxGeometry x="39" y="994" width="70" height="25" as="geometry" />
        </mxCell>
        <mxCell id="0P405ycxDc1SztrLUxh2-272" value="是否合格" style="rhombus;whiteSpace=wrap;html=1;fontSize=8;fontFamily=Verdana;rounded=1;shadow=0;labelBackgroundColor=none;strokeWidth=1;fillColor=#f8cecc;strokeColor=#b85450;" vertex="1" parent="0P405ycxDc1SztrLUxh2-262">
          <mxGeometry x="44" y="1047" width="60" height="38.5" as="geometry" />
        </mxCell>
        <mxCell id="0P405ycxDc1SztrLUxh2-273" style="edgeStyle=orthogonalEdgeStyle;rounded=0;orthogonalLoop=1;jettySize=auto;html=1;exitX=1;exitY=0;exitDx=0;exitDy=0;entryX=0.5;entryY=0;entryDx=0;entryDy=0;" edge="1" parent="0P405ycxDc1SztrLUxh2-1" source="0P405ycxDc1SztrLUxh2-3" target="0P405ycxDc1SztrLUxh2-211">
          <mxGeometry relative="1" as="geometry">
            <mxPoint x="302" y="-23" as="targetPoint" />
            <Array as="points">
              <mxPoint x="96" y="47" />
              <mxPoint x="492" y="47" />
              <mxPoint x="492" y="45" />
              <mxPoint x="917" y="45" />
            </Array>
          </mxGeometry>
        </mxCell>
        <mxCell id="0P405ycxDc1SztrLUxh2-274" value="&lt;font style=&quot;font-size: 8px;&quot;&gt;钽棒&lt;/font&gt;" style="edgeLabel;html=1;align=center;verticalAlign=middle;resizable=0;points=[];" vertex="1" connectable="0" parent="0P405ycxDc1SztrLUxh2-273">
          <mxGeometry x="0.9016" y="-1" relative="1" as="geometry">
            <mxPoint as="offset" />
          </mxGeometry>
        </mxCell>
        <mxCell id="0P405ycxDc1SztrLUxh2-275" style="edgeStyle=orthogonalEdgeStyle;rounded=0;orthogonalLoop=1;jettySize=auto;html=1;exitX=0;exitY=0.5;exitDx=0;exitDy=0;entryX=1;entryY=0.5;entryDx=0;entryDy=0;" edge="1" parent="0P405ycxDc1SztrLUxh2-1" target="0P405ycxDc1SztrLUxh2-13">
          <mxGeometry relative="1" as="geometry">
            <mxPoint x="882" y="773.5" as="sourcePoint" />
            <mxPoint x="132" y="787" as="targetPoint" />
          </mxGeometry>
        </mxCell>
      </root>
    </mxGraphModel>
  </diagram>
  <diagram id="_9Fg0cWlSQuLKQ_oCbri" name="第 2 页">
    <mxGraphModel dx="1434" dy="700" grid="1" gridSize="10" guides="1" tooltips="1" connect="1" arrows="1" fold="1" page="1" pageScale="1" pageWidth="827" pageHeight="1169" math="0" shadow="0">
      <root>
        <mxCell id="0" />
        <mxCell id="1" parent="0" />
        <mxCell id="wSHs8Ko8zVnTEtxP6O9--1" value="" style="edgeStyle=orthogonalEdgeStyle;rounded=0;orthogonalLoop=1;jettySize=auto;html=1;" edge="1" parent="1" source="wSHs8Ko8zVnTEtxP6O9--2" target="wSHs8Ko8zVnTEtxP6O9--5">
          <mxGeometry relative="1" as="geometry" />
        </mxCell>
        <mxCell id="wSHs8Ko8zVnTEtxP6O9--2" value="开始" style="ellipse;whiteSpace=wrap;html=1;" vertex="1" parent="1">
          <mxGeometry x="180" y="100" width="120" height="80" as="geometry" />
        </mxCell>
        <mxCell id="wSHs8Ko8zVnTEtxP6O9--3" value="" style="edgeStyle=orthogonalEdgeStyle;rounded=0;orthogonalLoop=1;jettySize=auto;html=1;" edge="1" parent="1" source="wSHs8Ko8zVnTEtxP6O9--5" target="wSHs8Ko8zVnTEtxP6O9--8">
          <mxGeometry relative="1" as="geometry" />
        </mxCell>
        <mxCell id="wSHs8Ko8zVnTEtxP6O9--4" style="edgeStyle=orthogonalEdgeStyle;rounded=0;orthogonalLoop=1;jettySize=auto;html=1;" edge="1" parent="1" source="wSHs8Ko8zVnTEtxP6O9--5" target="wSHs8Ko8zVnTEtxP6O9--24">
          <mxGeometry relative="1" as="geometry" />
        </mxCell>
        <mxCell id="wSHs8Ko8zVnTEtxP6O9--5" value="搜集基础数据，可提供模版让客户维护" style="rounded=1;whiteSpace=wrap;html=1;" vertex="1" parent="1">
          <mxGeometry x="180" y="230" width="120" height="60" as="geometry" />
        </mxCell>
        <mxCell id="wSHs8Ko8zVnTEtxP6O9--6" value="" style="edgeStyle=orthogonalEdgeStyle;rounded=0;orthogonalLoop=1;jettySize=auto;html=1;" edge="1" parent="1" source="wSHs8Ko8zVnTEtxP6O9--8" target="wSHs8Ko8zVnTEtxP6O9--10">
          <mxGeometry relative="1" as="geometry" />
        </mxCell>
        <mxCell id="wSHs8Ko8zVnTEtxP6O9--7" style="edgeStyle=orthogonalEdgeStyle;rounded=0;orthogonalLoop=1;jettySize=auto;html=1;" edge="1" parent="1" source="wSHs8Ko8zVnTEtxP6O9--8" target="wSHs8Ko8zVnTEtxP6O9--25">
          <mxGeometry relative="1" as="geometry" />
        </mxCell>
        <mxCell id="wSHs8Ko8zVnTEtxP6O9--8" value="了解车间设备布局，车间布局简图，并将工艺流转标准清楚（若有排产，此步骤比较重要）" style="rounded=1;whiteSpace=wrap;html=1;" vertex="1" parent="1">
          <mxGeometry x="180" y="320" width="120" height="80" as="geometry" />
        </mxCell>
        <mxCell id="wSHs8Ko8zVnTEtxP6O9--9" value="" style="edgeStyle=orthogonalEdgeStyle;rounded=0;orthogonalLoop=1;jettySize=auto;html=1;" edge="1" parent="1" source="wSHs8Ko8zVnTEtxP6O9--10" target="wSHs8Ko8zVnTEtxP6O9--13">
          <mxGeometry relative="1" as="geometry" />
        </mxCell>
        <mxCell id="wSHs8Ko8zVnTEtxP6O9--10" value="按照工艺点详细调研，从领料到产出的每个工序，记录每个工序的特殊点、异常情况及记录情况" style="rounded=1;whiteSpace=wrap;html=1;" vertex="1" parent="1">
          <mxGeometry x="180" y="430" width="120" height="80" as="geometry" />
        </mxCell>
        <mxCell id="wSHs8Ko8zVnTEtxP6O9--11" value="" style="edgeStyle=orthogonalEdgeStyle;rounded=0;orthogonalLoop=1;jettySize=auto;html=1;" edge="1" parent="1" source="wSHs8Ko8zVnTEtxP6O9--13" target="wSHs8Ko8zVnTEtxP6O9--16">
          <mxGeometry relative="1" as="geometry" />
        </mxCell>
        <mxCell id="wSHs8Ko8zVnTEtxP6O9--12" style="edgeStyle=orthogonalEdgeStyle;rounded=0;orthogonalLoop=1;jettySize=auto;html=1;" edge="1" parent="1" source="wSHs8Ko8zVnTEtxP6O9--13" target="wSHs8Ko8zVnTEtxP6O9--28">
          <mxGeometry relative="1" as="geometry" />
        </mxCell>
        <mxCell id="wSHs8Ko8zVnTEtxP6O9--13" value="调研接口情况，第三方集成系统对接的字段信息" style="rounded=1;whiteSpace=wrap;html=1;" vertex="1" parent="1">
          <mxGeometry x="180" y="540" width="120" height="60" as="geometry" />
        </mxCell>
        <mxCell id="wSHs8Ko8zVnTEtxP6O9--14" value="" style="edgeStyle=orthogonalEdgeStyle;rounded=0;orthogonalLoop=1;jettySize=auto;html=1;" edge="1" parent="1" source="wSHs8Ko8zVnTEtxP6O9--16" target="wSHs8Ko8zVnTEtxP6O9--19">
          <mxGeometry relative="1" as="geometry" />
        </mxCell>
        <mxCell id="wSHs8Ko8zVnTEtxP6O9--15" style="edgeStyle=orthogonalEdgeStyle;rounded=0;orthogonalLoop=1;jettySize=auto;html=1;" edge="1" parent="1" source="wSHs8Ko8zVnTEtxP6O9--16" target="wSHs8Ko8zVnTEtxP6O9--29">
          <mxGeometry relative="1" as="geometry" />
        </mxCell>
        <mxCell id="wSHs8Ko8zVnTEtxP6O9--16" value="搜集非生产部门的需求，例如品控、财务等" style="rounded=1;whiteSpace=wrap;html=1;" vertex="1" parent="1">
          <mxGeometry x="180" y="630" width="120" height="60" as="geometry" />
        </mxCell>
        <mxCell id="wSHs8Ko8zVnTEtxP6O9--17" value="" style="edgeStyle=orthogonalEdgeStyle;rounded=0;orthogonalLoop=1;jettySize=auto;html=1;" edge="1" parent="1" source="wSHs8Ko8zVnTEtxP6O9--19" target="wSHs8Ko8zVnTEtxP6O9--22">
          <mxGeometry relative="1" as="geometry" />
        </mxCell>
        <mxCell id="wSHs8Ko8zVnTEtxP6O9--18" style="edgeStyle=orthogonalEdgeStyle;rounded=0;orthogonalLoop=1;jettySize=auto;html=1;" edge="1" parent="1" source="wSHs8Ko8zVnTEtxP6O9--19" target="wSHs8Ko8zVnTEtxP6O9--30">
          <mxGeometry relative="1" as="geometry" />
        </mxCell>
        <mxCell id="wSHs8Ko8zVnTEtxP6O9--19" value="汇总所有调研材料，核对URS" style="rounded=1;whiteSpace=wrap;html=1;" vertex="1" parent="1">
          <mxGeometry x="180" y="730" width="120" height="60" as="geometry" />
        </mxCell>
        <mxCell id="wSHs8Ko8zVnTEtxP6O9--20" value="" style="edgeStyle=orthogonalEdgeStyle;rounded=0;orthogonalLoop=1;jettySize=auto;html=1;" edge="1" parent="1" source="wSHs8Ko8zVnTEtxP6O9--22">
          <mxGeometry relative="1" as="geometry">
            <mxPoint x="380" y="870" as="targetPoint" />
          </mxGeometry>
        </mxCell>
        <mxCell id="wSHs8Ko8zVnTEtxP6O9--21" value="" style="edgeStyle=orthogonalEdgeStyle;rounded=0;orthogonalLoop=1;jettySize=auto;html=1;" edge="1" parent="1" source="wSHs8Ko8zVnTEtxP6O9--22" target="wSHs8Ko8zVnTEtxP6O9--23">
          <mxGeometry relative="1" as="geometry" />
        </mxCell>
        <mxCell id="wSHs8Ko8zVnTEtxP6O9--22" value="对功能进行设计" style="rounded=1;whiteSpace=wrap;html=1;" vertex="1" parent="1">
          <mxGeometry x="180" y="840" width="120" height="60" as="geometry" />
        </mxCell>
        <mxCell id="wSHs8Ko8zVnTEtxP6O9--23" value="结束" style="ellipse;whiteSpace=wrap;html=1;rounded=1;" vertex="1" parent="1">
          <mxGeometry x="180" y="950" width="120" height="80" as="geometry" />
        </mxCell>
        <mxCell id="wSHs8Ko8zVnTEtxP6O9--24" value="数据模型表（制药行业加上批记录）" style="strokeWidth=2;html=1;shape=mxgraph.flowchart.document2;whiteSpace=wrap;size=0.25;" vertex="1" parent="1">
          <mxGeometry x="390" y="225" width="120" height="70" as="geometry" />
        </mxCell>
        <mxCell id="wSHs8Ko8zVnTEtxP6O9--25" value="车间工艺布局图（可客户提供）&amp;amp;工艺流程图" style="strokeWidth=2;html=1;shape=mxgraph.flowchart.document2;whiteSpace=wrap;size=0.25;" vertex="1" parent="1">
          <mxGeometry x="390" y="325" width="120" height="70" as="geometry" />
        </mxCell>
        <mxCell id="wSHs8Ko8zVnTEtxP6O9--26" value="电子表单模版" style="strokeWidth=2;html=1;shape=mxgraph.flowchart.document2;whiteSpace=wrap;size=0.25;" vertex="1" parent="1">
          <mxGeometry x="560" y="435" width="120" height="70" as="geometry" />
        </mxCell>
        <mxCell id="wSHs8Ko8zVnTEtxP6O9--27" value="管理流程图" style="strokeWidth=2;html=1;shape=mxgraph.flowchart.document2;whiteSpace=wrap;size=0.25;" vertex="1" parent="1">
          <mxGeometry x="390" y="435" width="120" height="70" as="geometry" />
        </mxCell>
        <mxCell id="wSHs8Ko8zVnTEtxP6O9--28" value="接口流程图/接口开发清单" style="strokeWidth=2;html=1;shape=mxgraph.flowchart.document2;whiteSpace=wrap;size=0.25;" vertex="1" parent="1">
          <mxGeometry x="390" y="535" width="120" height="70" as="geometry" />
        </mxCell>
        <mxCell id="wSHs8Ko8zVnTEtxP6O9--29" value="调研纪要资料" style="strokeWidth=2;html=1;shape=mxgraph.flowchart.document2;whiteSpace=wrap;size=0.25;" vertex="1" parent="1">
          <mxGeometry x="390" y="625" width="120" height="70" as="geometry" />
        </mxCell>
        <mxCell id="wSHs8Ko8zVnTEtxP6O9--30" value="&lt;meta charset=&quot;utf-8&quot;&gt;&lt;span style=&quot;color: rgb(0, 0, 0); font-family: Helvetica; font-size: 12px; font-style: normal; font-variant-ligatures: normal; font-variant-caps: normal; font-weight: 400; letter-spacing: normal; orphans: 2; text-align: center; text-indent: 0px; text-transform: none; widows: 2; word-spacing: 0px; -webkit-text-stroke-width: 0px; background-color: rgb(251, 251, 251); text-decoration-thickness: initial; text-decoration-style: initial; text-decoration-color: initial; float: none; display: inline !important;&quot;&gt;蓝图文件（FS文件）&lt;/span&gt;" style="strokeWidth=2;html=1;shape=mxgraph.flowchart.document2;whiteSpace=wrap;size=0.25;" vertex="1" parent="1">
          <mxGeometry x="390" y="725" width="120" height="70" as="geometry" />
        </mxCell>
        <mxCell id="wSHs8Ko8zVnTEtxP6O9--31" value="详设文档（SDS）" style="strokeWidth=2;html=1;shape=mxgraph.flowchart.document2;whiteSpace=wrap;size=0.25;" vertex="1" parent="1">
          <mxGeometry x="390" y="835" width="120" height="70" as="geometry" />
        </mxCell>
        <mxCell id="wSHs8Ko8zVnTEtxP6O9--32" style="edgeStyle=orthogonalEdgeStyle;rounded=0;orthogonalLoop=1;jettySize=auto;html=1;entryX=0;entryY=0.5;entryDx=0;entryDy=0;entryPerimeter=0;" edge="1" parent="1" source="wSHs8Ko8zVnTEtxP6O9--27" target="wSHs8Ko8zVnTEtxP6O9--26">
          <mxGeometry relative="1" as="geometry" />
        </mxCell>
        <mxCell id="wSHs8Ko8zVnTEtxP6O9--33" style="edgeStyle=orthogonalEdgeStyle;rounded=0;orthogonalLoop=1;jettySize=auto;html=1;entryX=0;entryY=0.5;entryDx=0;entryDy=0;entryPerimeter=0;" edge="1" parent="1" source="wSHs8Ko8zVnTEtxP6O9--10" target="wSHs8Ko8zVnTEtxP6O9--27">
          <mxGeometry relative="1" as="geometry" />
        </mxCell>
      </root>
    </mxGraphModel>
  </diagram>
</mxfile>
